<?xml version="1.0" standalone="no"?>
<!DOCTYPE svg PUBLIC "-//W3C//DTD SVG 20010904//EN"
 "http://www.w3.org/TR/2001/REC-SVG-20010904/DTD/svg10.dtd">
<svg version="1.0" xmlns="http://www.w3.org/2000/svg"
 width="800.000000pt" height="910.000000pt" viewBox="0 0 800.000000 910.000000"
 preserveAspectRatio="xMidYMid meet">
<metadata>
Created by potrace 1.16, written by Peter Selinger 2001-2019
</metadata>
<g transform="translate(0.000000,910.000000) scale(0.100000,-0.100000)"
fill="#000000" stroke="none">
<path d="M2030 7585 c0 -78 3 -95 15 -95 12 0 15 -13 15 -60 0 -33 4 -60 10
-60 6 0 10 -7 10 -15 0 -11 11 -15 40 -15 29 0 40 4 40 15 0 8 7 15 15 15 10
0 15 11 15 35 0 24 -5 35 -15 35 -8 0 -15 7 -15 15 0 8 -4 15 -10 15 -5 0 -10
23 -10 50 0 38 -4 50 -15 50 -8 0 -15 5 -15 10 0 6 -7 10 -15 10 -9 0 -15 9
-15 25 0 16 6 25 15 25 8 0 15 9 15 20 0 17 -7 20 -40 20 l-40 0 0 -95z"/>
<path d="M3323 7673 c9 -2 17 -11 17 -19 0 -8 9 -14 21 -14 22 0 49 -22 49
-39 0 -6 7 -11 15 -11 8 0 15 -4 15 -10 0 -5 11 -10 25 -10 14 0 25 -5 25 -11
0 -14 25 -39 39 -39 6 0 11 -5 11 -11 0 -14 25 -39 39 -39 6 0 11 -7 11 -15 0
-8 5 -15 10 -15 6 0 10 -11 10 -25 0 -14 5 -25 11 -25 14 0 39 -25 39 -39 0
-6 7 -11 15 -11 12 0 15 -16 15 -85 0 -50 4 -85 10 -85 6 0 10 -7 10 -15 0 -8
7 -15 15 -15 9 0 15 -9 15 -25 0 -14 5 -25 10 -25 6 0 10 -11 10 -25 0 -16 6
-25 15 -25 8 0 15 -4 15 -10 0 -5 16 -10 35 -10 19 0 35 5 35 10 0 6 7 10 15
10 8 0 15 7 15 15 0 9 9 15 25 15 14 0 25 -5 25 -11 0 -20 29 -39 60 -39 17 0
38 6 46 14 16 17 19 56 4 56 -5 0 -10 7 -10 15 0 9 -9 15 -25 15 -14 0 -25 5
-25 10 0 6 -11 10 -25 10 -16 0 -25 6 -25 15 0 8 -7 15 -15 15 -9 0 -15 9 -15
25 0 16 6 25 15 25 8 0 15 5 15 10 0 6 16 10 35 10 24 0 35 5 35 15 0 8 7 15
15 15 8 0 15 5 15 10 0 6 16 10 35 10 19 0 35 -4 35 -10 0 -5 7 -10 15 -10 9
0 15 -9 15 -25 0 -16 -6 -25 -15 -25 -9 0 -15 -9 -15 -25 0 -16 6 -25 15 -25
8 0 15 -7 15 -15 0 -10 11 -15 35 -15 24 0 35 5 35 15 0 9 9 15 25 15 14 0 25
5 25 10 0 6 11 10 25 10 16 0 25 6 25 15 0 8 7 15 15 15 8 0 15 5 15 10 0 6
32 10 75 10 60 0 75 3 75 15 0 8 5 15 10 15 6 0 10 16 10 35 0 19 -4 35 -10
35 -5 0 -10 7 -10 15 0 8 -5 15 -11 15 -17 0 -39 27 -39 49 0 12 -6 21 -15 21
-8 0 -15 7 -15 15 0 10 -11 15 -35 15 -24 0 -35 -5 -35 -15 0 -11 -11 -15 -40
-15 -22 0 -40 -4 -40 -10 0 -6 -35 -10 -85 -10 -50 0 -85 4 -85 10 0 6 -7 10
-15 10 -9 0 -15 9 -15 25 0 14 -4 25 -10 25 -5 0 -10 7 -10 15 0 8 -7 15 -15
15 -8 0 -15 5 -15 10 0 6 -16 10 -35 10 -19 0 -35 -4 -35 -10 0 -5 -7 -10 -15
-10 -9 0 -15 -9 -15 -25 0 -16 6 -25 15 -25 9 0 15 -9 15 -25 0 -16 -6 -25
-15 -25 -8 0 -15 -7 -15 -15 0 -10 -11 -15 -35 -15 -19 0 -35 -4 -35 -10 0 -5
-11 -10 -25 -10 -16 0 -25 -6 -25 -15 0 -9 -9 -15 -25 -15 -16 0 -25 6 -25 15
0 8 -7 15 -15 15 -9 0 -15 9 -15 25 0 14 5 25 11 25 6 0 17 6 25 14 8 8 14 19
14 25 0 6 5 11 11 11 14 0 39 25 39 39 0 6 7 11 15 11 12 0 15 13 15 60 0 33
4 60 10 60 6 0 10 6 10 14 0 8 8 17 18 19 9 3 -33 5 -95 6 -119 1 -143 -3
-143 -25 0 -8 -10 -14 -25 -14 -15 0 -25 6 -25 14 0 21 -34 26 -165 25 -66 -1
-112 -3 -102 -6z"/>
<path d="M4410 7650 c0 -20 5 -30 15 -30 8 0 15 -7 15 -15 0 -9 9 -15 25 -15
16 0 25 6 25 15 0 8 5 15 10 15 16 0 11 47 -6 54 -9 3 -31 6 -50 6 -31 0 -34
-3 -34 -30z"/>
<path d="M5598 7673 c6 -2 12 -11 12 -19 0 -8 10 -14 25 -14 15 0 25 6 25 14
0 8 8 17 18 19 9 3 -8 5 -38 5 -30 0 -49 -2 -42 -5z"/>
<path d="M6440 7650 c0 -16 -4 -30 -10 -30 -5 0 -10 -7 -10 -15 0 -8 -5 -15
-11 -15 -6 0 -17 -6 -25 -14 -8 -8 -14 -19 -14 -25 0 -6 -7 -11 -15 -11 -8 0
-15 -4 -15 -10 0 -5 -22 -10 -50 -10 -29 0 -50 -5 -50 -11 0 -17 -27 -39 -49
-39 -12 0 -21 -6 -21 -15 0 -8 -5 -15 -11 -15 -35 0 -53 -77 -25 -106 17 -16
106 -20 106 -4 0 6 23 10 50 10 38 0 50 4 50 15 0 8 7 15 15 15 8 0 15 5 15
10 0 6 16 10 35 10 24 0 35 5 35 15 0 11 12 15 50 15 38 0 50 -4 50 -15 0 -9
9 -15 25 -15 14 0 25 -4 25 -10 0 -5 7 -10 15 -10 8 0 15 -7 15 -15 0 -9 9
-15 25 -15 16 0 25 6 25 15 0 9 9 15 21 15 11 0 27 6 35 14 16 17 20 106 4
106 -5 0 -10 7 -10 15 0 11 -11 15 -36 15 -19 0 -42 6 -50 14 -16 17 -19 56
-4 56 6 0 10 20 10 45 l0 45 -100 0 -100 0 0 -30z"/>
<path d="M4990 7630 c0 -6 -28 -10 -65 -10 -51 0 -65 -3 -65 -15 0 -11 -12
-15 -50 -15 -27 0 -50 -4 -50 -10 0 -5 -11 -10 -25 -10 -16 0 -25 -6 -25 -15
0 -8 -4 -15 -10 -15 -15 0 -12 -39 4 -56 16 -16 86 -19 86 -4 0 6 16 10 35 10
24 0 35 5 35 15 0 11 11 15 40 15 22 0 40 5 40 10 0 6 27 10 60 10 47 0 60 3
60 15 0 8 7 15 15 15 9 0 15 9 15 25 0 16 -6 25 -15 25 -8 0 -15 5 -15 10 0 6
-16 10 -35 10 -19 0 -35 -4 -35 -10z"/>
<path d="M2410 7605 c0 -8 -4 -15 -10 -15 -16 0 -12 -89 4 -106 17 -16 56 -19
56 -4 0 6 7 10 15 10 9 0 15 9 15 25 0 14 5 25 10 25 6 0 10 11 10 25 0 14 -4
25 -10 25 -5 0 -10 7 -10 15 0 11 -11 15 -40 15 -29 0 -40 -4 -40 -15z"/>
<path d="M5810 7305 c0 -8 -4 -15 -10 -15 -5 0 -10 -16 -10 -35 0 -19 5 -35
10 -35 6 0 10 -7 10 -15 0 -12 13 -15 55 -15 42 0 55 3 55 15 0 8 5 15 10 15
6 0 10 16 10 35 0 19 -4 35 -10 35 -5 0 -10 7 -10 15 0 12 -13 15 -55 15 -42
0 -55 -3 -55 -15z"/>
<path d="M1973 7175 c-7 -8 -13 -19 -13 -25 0 -5 -5 -10 -11 -10 -14 0 -39
-25 -39 -39 0 -6 -5 -11 -11 -11 -14 0 -39 -25 -39 -39 0 -6 -7 -11 -15 -11
-11 0 -15 -12 -15 -46 0 -44 -16 -74 -39 -74 -6 0 -11 -5 -11 -11 0 -17 -27
-39 -49 -39 -12 0 -21 -6 -21 -15 0 -9 -9 -15 -25 -15 -14 0 -25 -4 -25 -10 0
-5 -11 -10 -25 -10 -16 0 -25 -6 -25 -15 0 -12 -16 -15 -86 -15 -84 0 -114
-10 -114 -39 0 -6 -18 -11 -40 -11 -22 0 -40 5 -40 11 0 17 -27 39 -49 39 -12
0 -21 6 -21 15 0 12 -15 15 -75 15 -60 0 -75 -3 -75 -15 0 -8 -7 -15 -15 -15
-10 0 -15 -11 -15 -35 0 -24 5 -35 15 -35 12 0 15 -13 15 -61 0 -59 13 -89 39
-89 6 0 11 -7 11 -15 0 -9 9 -15 25 -15 14 0 25 -4 25 -10 0 -5 16 -10 35 -10
19 0 35 5 35 10 0 6 23 10 50 10 38 0 50 4 50 15 0 11 12 15 50 15 28 0 50 5
50 10 0 6 11 10 25 10 16 0 25 6 25 15 0 9 9 15 25 15 14 0 25 5 25 10 0 6 7
10 15 10 8 0 15 7 15 15 0 9 9 15 25 15 14 0 25 5 25 10 0 6 11 10 25 10 16 0
25 6 25 15 0 11 12 15 50 15 28 0 50 5 50 10 0 6 11 10 25 10 16 0 25 6 25 15
0 9 9 15 25 15 14 0 25 5 25 10 0 6 35 10 85 10 50 0 85 -4 85 -10 0 -16 149
-13 166 4 9 10 14 37 14 85 0 56 3 71 15 71 8 0 15 7 15 15 0 8 5 15 10 15 6
0 10 27 10 60 0 33 -4 60 -10 60 -5 0 -10 7 -10 15 0 8 -7 15 -15 15 -8 0 -15
5 -15 10 0 6 -16 10 -35 10 -24 0 -35 5 -35 15 0 12 -14 15 -65 15 -37 0 -65
4 -65 10 0 15 -73 11 -87 -5z"/>
<path d="M4740 7030 c0 -5 -7 -10 -15 -10 -8 0 -15 -5 -15 -11 0 -14 -25 -39
-39 -39 -6 0 -11 -7 -11 -15 0 -13 -22 -15 -135 -15 -83 0 -135 -4 -135 -10 0
-5 -7 -10 -15 -10 -9 0 -15 -9 -15 -25 0 -16 6 -25 15 -25 8 0 15 -5 15 -11 0
-32 29 -39 164 -39 114 0 136 -2 136 -15 0 -12 16 -15 85 -15 69 0 85 3 85 15
0 8 5 15 11 15 14 0 39 25 39 39 0 6 7 11 15 11 8 0 15 5 15 10 0 6 27 10 60
10 33 0 60 -4 60 -10 0 -5 11 -10 25 -10 14 0 25 5 25 10 0 6 7 10 15 10 9 0
15 9 15 25 0 16 -6 25 -15 25 -8 0 -15 5 -15 11 0 14 -25 39 -39 39 -6 0 -11
7 -11 15 0 11 -12 15 -50 15 -38 0 -50 -4 -50 -15 0 -9 -9 -15 -25 -15 -14 0
-25 -4 -25 -10 0 -5 -16 -10 -35 -10 -19 0 -35 5 -35 10 0 6 -7 10 -15 10 -8
0 -15 5 -15 11 0 17 -27 39 -49 39 -12 0 -21 -4 -21 -10z"/>
<path d="M871 6948 c-1 -65 2 -78 15 -78 18 0 44 23 44 39 0 6 7 11 15 11 9 0
15 9 15 25 0 16 -6 25 -15 25 -8 0 -15 5 -15 10 0 6 -11 10 -24 10 -15 0 -26
7 -29 18 -3 9 -5 -18 -6 -60z"/>
<path d="M3853 6975 c-8 -8 -13 -40 -13 -75 0 -47 -3 -60 -15 -60 -8 0 -15 -4
-15 -10 0 -5 -11 -10 -25 -10 -16 0 -25 -6 -25 -15 0 -8 -4 -15 -10 -15 -6 0
-10 -27 -10 -60 0 -47 -3 -60 -15 -60 -8 0 -15 -5 -15 -11 0 -14 -25 -39 -39
-39 -6 0 -11 -7 -11 -15 0 -8 -4 -15 -10 -15 -15 0 -12 -39 4 -56 29 -28 106
-10 106 25 0 6 7 11 15 11 9 0 15 9 15 21 0 22 22 49 39 49 6 0 11 5 11 11 0
14 25 39 39 39 7 0 11 24 11 61 0 65 13 89 49 89 12 0 21 6 21 15 0 8 7 15 15
15 10 0 15 11 15 35 0 24 -5 35 -15 35 -8 0 -15 5 -15 11 0 35 -81 54 -107 24z"/>
<path d="M4040 6755 c0 -8 -7 -15 -15 -15 -11 0 -15 -12 -15 -50 0 -29 5 -50
11 -50 14 0 39 -25 39 -39 0 -6 11 -11 25 -11 14 0 25 -4 25 -10 0 -5 7 -10
15 -10 8 0 15 -7 15 -15 0 -8 5 -15 10 -15 6 0 10 -28 10 -65 0 -40 4 -65 11
-65 14 0 39 -25 39 -39 0 -6 7 -11 15 -11 8 0 15 -4 15 -10 0 -15 39 -12 56 4
16 16 19 86 4 86 -5 0 -10 18 -10 40 0 29 -4 40 -15 40 -9 0 -15 9 -15 21 0
22 -22 49 -39 49 -6 0 -11 11 -11 25 0 14 -4 25 -10 25 -5 0 -10 11 -10 25 0
16 -6 25 -15 25 -9 0 -15 9 -15 25 0 14 -4 25 -10 25 -5 0 -10 7 -10 15 0 11
-12 15 -50 15 -38 0 -50 -4 -50 -15z"/>
<path d="M5253 6675 c-15 -17 -17 -85 -3 -85 6 0 10 -16 10 -35 0 -24 5 -35
15 -35 12 0 15 -14 15 -65 0 -37 4 -65 10 -65 6 0 10 -37 10 -90 0 -73 3 -90
15 -90 12 0 15 -15 15 -75 0 -60 -3 -75 -15 -75 -9 0 -15 -9 -15 -21 0 -26
-23 -49 -49 -49 -12 0 -21 -6 -21 -15 0 -8 -7 -15 -15 -15 -9 0 -15 -9 -15
-21 0 -22 -22 -49 -39 -49 -6 0 -11 -5 -11 -11 0 -17 -27 -39 -49 -39 -12 0
-21 5 -21 10 0 6 -11 10 -25 10 -14 0 -25 -4 -25 -10 0 -5 -22 -10 -50 -10
-27 0 -50 5 -50 10 0 6 -11 10 -25 10 -16 0 -25 6 -25 15 0 9 -9 15 -25 15
-14 0 -25 5 -25 10 0 6 -7 10 -15 10 -8 0 -15 7 -15 15 0 11 -12 15 -50 15
-29 0 -50 -5 -50 -11 0 -14 -25 -39 -39 -39 -6 0 -11 -7 -11 -15 0 -8 -4 -15
-10 -15 -15 0 -12 -39 4 -56 9 -8 34 -14 60 -14 34 0 46 -4 46 -15 0 -8 7 -15
15 -15 9 0 15 -9 15 -25 0 -16 -6 -25 -15 -25 -8 0 -15 -4 -15 -10 0 -5 -22
-10 -50 -10 -29 0 -50 -5 -50 -11 0 -17 -27 -39 -49 -39 -16 0 -21 6 -21 25 0
16 -6 25 -15 25 -8 0 -15 5 -15 10 0 6 -11 10 -25 10 -16 0 -25 6 -25 15 0 9
-9 15 -21 15 -22 0 -49 22 -49 39 0 6 -11 11 -25 11 -16 0 -25 -6 -25 -15 0
-8 -7 -15 -15 -15 -9 0 -15 -9 -15 -25 0 -16 6 -25 15 -25 9 0 15 -9 15 -25 0
-16 -6 -25 -15 -25 -8 0 -15 -4 -15 -10 0 -5 -11 -10 -25 -10 -14 0 -25 5 -25
10 0 6 -11 10 -25 10 -16 0 -25 6 -25 15 0 12 -13 15 -60 15 -47 0 -60 -3 -60
-15 0 -8 -7 -15 -15 -15 -9 0 -15 -9 -15 -25 0 -16 6 -25 15 -25 8 0 15 -4 15
-10 0 -5 -7 -10 -15 -10 -8 0 -15 -7 -15 -15 0 -8 -4 -15 -10 -15 -5 0 -10 7
-10 15 0 11 -11 15 -36 15 -45 0 -64 19 -64 64 0 20 -5 36 -11 36 -17 0 -39
27 -39 49 0 12 -6 21 -15 21 -8 0 -15 7 -15 15 0 8 -4 15 -10 15 -5 0 -10 9
-10 21 0 22 22 49 39 49 6 0 11 7 11 15 0 12 13 15 60 15 33 0 60 4 60 10 0 6
7 10 15 10 11 0 15 12 15 50 0 38 -4 50 -15 50 -8 0 -15 7 -15 15 0 10 -11 15
-35 15 -24 0 -35 -5 -35 -15 0 -8 -7 -15 -15 -15 -9 0 -15 -9 -15 -21 0 -40
-22 -49 -124 -49 -79 0 -96 -3 -96 -15 0 -8 -5 -15 -11 -15 -17 0 -39 -27 -39
-49 0 -12 5 -21 10 -21 6 0 10 -7 10 -15 0 -8 5 -15 11 -15 6 0 17 -6 25 -14
8 -8 14 -19 14 -25 0 -6 7 -11 15 -11 10 0 15 -11 15 -35 0 -19 5 -35 10 -35
6 0 10 -7 10 -15 0 -8 5 -15 11 -15 6 0 17 -6 25 -14 8 -8 14 -19 14 -25 0 -6
5 -11 11 -11 14 0 39 -25 39 -39 0 -6 5 -11 11 -11 23 0 39 -30 39 -74 0 -34
4 -46 15 -46 8 0 15 -5 15 -11 0 -14 25 -39 39 -39 6 0 11 -7 11 -15 0 -9 9
-15 25 -15 14 0 25 5 25 11 0 20 29 39 60 39 31 0 60 -19 60 -39 0 -6 11 -11
25 -11 16 0 25 6 25 15 0 8 7 15 15 15 12 0 15 16 15 85 0 50 4 85 10 85 6 0
10 7 10 15 0 9 9 15 25 15 16 0 25 -6 25 -15 0 -8 7 -15 15 -15 9 0 15 -9 15
-25 0 -16 -6 -25 -15 -25 -10 0 -15 -11 -15 -35 0 -24 5 -35 15 -35 9 0 15 -9
15 -25 0 -16 -6 -25 -15 -25 -8 0 -15 -5 -15 -11 0 -14 -25 -39 -39 -39 -6 0
-11 -11 -11 -25 0 -16 6 -25 15 -25 11 0 15 -12 15 -50 0 -27 5 -50 10 -50 6
0 10 -7 10 -15 0 -8 5 -15 11 -15 17 0 39 -27 39 -49 0 -12 -4 -21 -10 -21 -5
0 -10 -7 -10 -15 0 -11 -11 -15 -36 -15 -40 0 -64 -18 -64 -49 0 -12 -6 -21
-15 -21 -8 0 -15 -7 -15 -15 0 -9 -9 -15 -21 -15 -11 0 -27 -6 -35 -14 -18
-19 -18 -73 0 -92 17 -16 56 -19 56 -4 0 6 7 10 15 10 8 0 15 7 15 15 0 9 9
15 25 15 16 0 25 -6 25 -15 0 -8 5 -15 10 -15 6 0 10 -16 10 -35 0 -24 5 -35
15 -35 8 0 15 -7 15 -15 0 -9 9 -15 25 -15 16 0 25 6 25 15 0 9 9 15 25 15 14
0 25 -5 25 -11 0 -17 27 -39 49 -39 12 0 21 5 21 10 0 6 7 10 15 10 12 0 15
14 15 65 0 40 -4 65 -11 65 -14 0 -39 25 -39 39 0 6 -5 11 -11 11 -23 0 -39
30 -39 74 0 34 -4 46 -15 46 -11 0 -15 12 -15 50 0 28 -4 50 -10 50 -5 0 -10
11 -10 25 0 16 -6 25 -15 25 -9 0 -15 9 -15 25 0 16 6 25 15 25 8 0 15 5 15
11 0 14 25 39 39 39 6 0 11 5 11 11 0 14 25 39 39 39 6 0 11 7 11 15 0 10 11
15 35 15 19 0 35 5 35 10 0 6 7 10 15 10 8 0 15 7 15 15 0 12 13 15 60 15 33
0 60 4 60 10 0 6 11 10 25 10 16 0 25 6 25 15 0 8 5 15 11 15 14 0 39 25 39
39 0 6 7 11 15 11 8 0 15 5 15 10 0 6 11 10 25 10 14 0 25 5 25 11 0 26 30 39
89 39 37 0 61 4 61 11 0 17 27 39 49 39 12 0 21 6 21 15 0 9 9 15 25 15 14 0
25 5 25 10 0 6 11 10 25 10 16 0 25 6 25 15 0 11 12 15 50 15 38 0 50 -4 50
-15 0 -9 9 -15 25 -15 14 0 25 -4 25 -10 0 -5 11 -10 25 -10 16 0 25 -6 25
-15 0 -9 9 -15 25 -15 16 0 25 6 25 15 0 8 7 15 15 15 11 0 15 12 15 50 0 38
-4 50 -15 50 -12 0 -15 19 -15 110 0 67 -4 110 -10 110 -5 0 -10 23 -10 50 0
38 -4 50 -15 50 -8 0 -15 7 -15 15 0 8 -4 15 -10 15 -5 0 -10 16 -10 35 0 19
5 35 10 35 6 0 10 23 10 50 0 28 -4 50 -10 50 -6 0 -10 58 -10 155 0 104 -4
155 -11 155 -6 0 -17 6 -25 14 -8 8 -14 19 -14 25 0 6 -18 11 -40 11 -22 0
-40 5 -40 10 0 15 -43 11 -57 -5z m-293 -900 c0 -8 7 -15 15 -15 9 0 15 -9 15
-25 0 -16 -6 -25 -15 -25 -8 0 -15 -4 -15 -10 0 -5 -16 -10 -35 -10 -19 0 -35
5 -35 10 0 6 -7 10 -15 10 -9 0 -15 9 -15 25 0 16 6 25 15 25 8 0 15 7 15 15
0 10 11 15 35 15 24 0 35 -5 35 -15z"/>
<path d="M5970 6530 c0 -6 -28 -10 -65 -10 -51 0 -65 -3 -65 -15 0 -9 -9 -15
-25 -15 -14 0 -25 -4 -25 -10 0 -5 -11 -10 -25 -10 -14 0 -25 5 -25 10 0 6
-11 10 -25 10 -16 0 -25 6 -25 15 0 11 -11 15 -40 15 -22 0 -40 -5 -40 -11 0
-14 -25 -39 -39 -39 -6 0 -11 -18 -11 -40 0 -29 4 -40 15 -40 8 0 15 -5 15
-11 0 -14 25 -39 39 -39 6 0 11 -11 11 -25 0 -16 -6 -25 -15 -25 -8 0 -15 -7
-15 -15 0 -9 -9 -15 -21 -15 -11 0 -27 -6 -35 -14 -8 -8 -14 -24 -14 -35 0
-12 -6 -21 -15 -21 -11 0 -15 -11 -15 -40 0 -29 4 -40 15 -40 8 0 15 -4 15
-10 0 -5 9 -10 21 -10 22 0 49 22 49 39 0 6 11 11 25 11 14 0 25 5 25 10 0 6
7 10 15 10 8 0 15 7 15 15 0 8 5 15 10 15 6 0 10 11 10 25 0 14 5 25 11 25 21
0 39 29 39 64 0 25 4 36 15 36 8 0 15 5 15 10 0 6 9 10 21 10 22 0 49 -22 49
-39 0 -7 40 -11 115 -11 96 0 115 3 115 15 0 8 5 15 11 15 6 0 17 6 25 14 8 8
14 19 14 25 0 6 11 11 25 11 14 0 25 5 25 10 0 6 7 10 15 10 10 0 15 10 15 30
0 17 -5 30 -11 30 -6 0 -17 6 -25 14 -8 8 -14 19 -14 25 0 6 -18 11 -40 11
-22 0 -40 5 -40 10 0 6 -27 10 -60 10 -33 0 -60 -4 -60 -10z"/>
<path d="M2260 6505 c0 -10 -11 -15 -35 -15 -19 0 -35 -4 -35 -10 0 -5 -7 -10
-15 -10 -8 0 -15 -7 -15 -15 0 -8 -4 -15 -10 -15 -15 0 -12 -70 4 -86 11 -10
41 -14 110 -14 79 0 96 -3 96 -15 0 -11 12 -15 50 -15 38 0 50 4 50 15 0 8 7
15 15 15 9 0 15 9 15 25 0 14 -5 25 -11 25 -14 0 -39 25 -39 39 0 6 -11 11
-25 11 -16 0 -25 6 -25 15 0 8 -5 15 -11 15 -14 0 -39 25 -39 39 0 6 -18 11
-40 11 -29 0 -40 -4 -40 -15z"/>
<path d="M1160 6480 c0 -5 -7 -10 -15 -10 -8 0 -15 -7 -15 -15 0 -8 -4 -15
-10 -15 -5 0 -10 -11 -10 -25 0 -14 5 -25 10 -25 6 0 10 -7 10 -15 0 -8 7 -15
15 -15 8 0 15 -4 15 -10 0 -5 16 -10 35 -10 19 0 35 5 35 10 0 6 7 10 15 10 9
0 15 9 15 25 0 16 -6 25 -15 25 -9 0 -15 10 -15 26 0 14 -6 32 -14 40 -17 16
-56 19 -56 4z"/>
<path d="M6683 6475 c-7 -8 -13 -19 -13 -25 0 -5 -7 -10 -15 -10 -9 0 -15 -9
-15 -25 0 -16 6 -25 15 -25 8 0 15 -5 15 -11 0 -14 25 -39 39 -39 6 0 11 -5
11 -11 0 -14 25 -39 39 -39 6 0 11 -5 11 -11 0 -14 25 -39 39 -39 6 0 11 -5
11 -11 0 -14 25 -39 39 -39 6 0 11 -5 11 -11 0 -17 27 -39 49 -39 12 0 21 5
21 10 0 6 7 10 15 10 9 0 15 9 15 25 0 14 5 25 10 25 6 0 10 7 10 15 0 8 7 15
15 15 9 0 15 9 15 25 0 14 5 25 10 25 15 0 12 39 -4 56 -8 8 -34 14 -60 14
-34 0 -46 4 -46 15 0 8 -5 15 -11 15 -6 0 -17 6 -25 14 -8 8 -14 19 -14 25 0
6 -7 11 -15 11 -8 0 -15 7 -15 15 0 9 -9 15 -25 15 -14 0 -25 5 -25 10 0 16
-93 11 -107 -5z"/>
<path d="M3440 6250 c0 -5 -11 -10 -25 -10 -16 0 -25 -6 -25 -15 0 -8 -7 -15
-15 -15 -8 0 -15 -4 -15 -10 0 -6 -35 -10 -85 -10 -69 0 -85 -3 -85 -15 0 -12
-18 -15 -100 -15 -60 0 -100 -4 -100 -10 0 -5 -7 -10 -15 -10 -9 0 -15 -9 -15
-25 0 -16 6 -25 15 -25 8 0 15 -7 15 -15 0 -9 9 -15 25 -15 14 0 25 -4 25 -10
0 -5 11 -10 25 -10 16 0 25 -6 25 -15 0 -8 5 -15 10 -15 6 0 10 -35 10 -85 0
-69 3 -85 15 -85 8 0 15 -7 15 -15 0 -9 9 -15 25 -15 14 0 25 5 25 11 0 17 27
39 49 39 12 0 21 6 21 15 0 8 5 15 11 15 14 0 39 25 39 39 0 6 7 11 15 11 8 0
15 5 15 10 0 6 11 10 25 10 14 0 25 -4 25 -10 0 -5 16 -10 35 -10 19 0 35 5
35 10 0 6 7 10 15 10 9 0 15 9 15 25 0 16 -6 25 -15 25 -11 0 -15 11 -15 40 0
22 5 40 11 40 14 0 39 25 39 39 0 6 7 11 15 11 11 0 15 12 15 50 0 38 -4 50
-15 50 -8 0 -15 5 -15 10 0 6 -16 10 -35 10 -19 0 -35 -4 -35 -10z"/>
<path d="M4340 6225 c0 -8 -7 -15 -15 -15 -10 0 -15 -11 -15 -35 0 -24 5 -35
15 -35 8 0 15 -7 15 -15 0 -9 9 -15 25 -15 14 0 25 -4 25 -10 0 -5 11 -10 25
-10 16 0 25 -6 25 -15 0 -9 9 -15 21 -15 22 0 49 -22 49 -39 0 -6 11 -11 25
-11 16 0 25 6 25 15 0 8 7 15 15 15 8 0 15 5 15 10 0 6 -7 10 -15 10 -8 0 -15
7 -15 15 0 8 -4 15 -10 15 -5 0 -10 11 -10 25 0 16 -6 25 -15 25 -8 0 -15 5
-15 10 0 6 -11 10 -25 10 -14 0 -25 5 -25 11 0 17 -27 39 -49 39 -12 0 -21 6
-21 15 0 9 -9 15 -25 15 -16 0 -25 -6 -25 -15z"/>
<path d="M1560 6175 c0 -8 -7 -15 -15 -15 -8 0 -15 -4 -15 -10 0 -5 -11 -10
-25 -10 -16 0 -25 -6 -25 -15 0 -8 -4 -15 -10 -15 -5 0 -10 -11 -10 -25 0 -16
-6 -25 -15 -25 -11 0 -15 -12 -15 -50 0 -27 -4 -50 -10 -50 -6 0 -10 -35 -10
-85 0 -50 4 -85 10 -85 6 0 10 -7 10 -15 0 -9 9 -15 25 -15 16 0 25 6 25 15 0
8 5 15 11 15 17 0 39 27 39 49 0 12 6 21 15 21 11 0 15 12 15 50 0 28 5 50 10
50 6 0 10 7 10 15 0 8 5 15 11 15 14 0 39 25 39 39 0 6 7 11 15 11 12 0 15 13
15 60 0 47 -3 60 -15 60 -8 0 -15 7 -15 15 0 10 -11 15 -35 15 -24 0 -35 -5
-35 -15z"/>
<path d="M6290 6075 c0 -8 -4 -15 -10 -15 -5 0 -10 -11 -10 -25 0 -14 5 -25
10 -25 6 0 10 -11 10 -25 0 -14 -4 -25 -10 -25 -6 0 -10 -32 -10 -75 0 -43 4
-75 10 -75 6 0 10 -22 10 -50 0 -27 -4 -50 -10 -50 -5 0 -10 -16 -10 -35 0
-19 5 -35 10 -35 6 0 10 -7 10 -15 0 -11 11 -15 36 -15 35 0 64 -18 64 -39 0
-6 5 -11 11 -11 6 0 17 -6 25 -14 8 -8 14 -19 14 -25 0 -6 18 -11 40 -11 29 0
40 4 40 15 0 8 5 15 10 15 6 0 10 16 10 35 0 19 -4 35 -10 35 -5 0 -10 7 -10
15 0 9 -9 15 -25 15 -14 0 -25 5 -25 10 0 6 -7 10 -15 10 -8 0 -15 7 -15 15 0
8 -4 15 -10 15 -5 0 -10 11 -10 25 0 16 -6 25 -15 25 -12 0 -15 15 -15 75 0
43 -4 75 -10 75 -6 0 -10 35 -10 85 0 69 -3 85 -15 85 -8 0 -15 7 -15 15 0 9
-9 15 -25 15 -16 0 -25 -6 -25 -15z"/>
<path d="M910 5625 c0 -8 -9 -15 -20 -15 -19 0 -20 -7 -20 -135 l0 -135 55 0
c30 0 55 5 55 10 0 6 7 10 15 10 8 0 15 7 15 15 0 12 15 15 75 15 60 0 75 -3
75 -15 0 -9 9 -15 25 -15 14 0 25 -4 25 -10 0 -5 11 -10 25 -10 16 0 25 -6 25
-15 0 -10 11 -15 35 -15 19 0 35 -4 35 -10 0 -16 119 -12 136 4 16 17 19 56 4
56 -5 0 -10 7 -10 15 0 8 -5 15 -11 15 -14 0 -39 25 -39 39 0 6 -18 11 -40 11
-22 0 -40 5 -40 10 0 6 -27 10 -60 10 -47 0 -60 3 -60 15 0 8 -7 15 -15 15 -8
0 -15 5 -15 10 0 6 -11 10 -25 10 -16 0 -25 6 -25 15 0 11 -12 15 -46 15 -49
0 -74 16 -74 49 0 12 -6 21 -15 21 -8 0 -15 7 -15 15 0 10 -11 15 -35 15 -24
0 -35 -5 -35 -15z"/>
<path d="M2940 5525 c0 -8 -7 -15 -15 -15 -12 0 -15 -16 -15 -85 0 -50 -4 -85
-10 -85 -5 0 -10 -18 -10 -40 0 -29 -4 -40 -15 -40 -12 0 -15 -16 -15 -85 0
-50 -4 -85 -10 -85 -5 0 -10 -7 -10 -15 0 -11 -11 -15 -40 -15 -22 0 -40 -4
-40 -10 0 -5 -11 -10 -25 -10 -16 0 -25 -6 -25 -15 0 -9 -9 -15 -25 -15 -14 0
-25 -4 -25 -10 0 -5 -11 -10 -25 -10 -14 0 -25 -5 -25 -11 0 -14 -25 -39 -39
-39 -6 0 -11 -7 -11 -15 0 -8 -4 -15 -10 -15 -5 0 -10 -11 -10 -25 0 -16 -6
-25 -15 -25 -8 0 -15 -4 -15 -10 0 -5 -11 -10 -25 -10 -16 0 -25 -6 -25 -15 0
-10 -11 -15 -35 -15 -19 0 -35 -4 -35 -10 0 -5 -18 -10 -40 -10 -29 0 -40 -4
-40 -15 0 -9 -9 -15 -25 -15 -14 0 -25 -4 -25 -10 0 -5 -22 -10 -50 -10 -27 0
-50 5 -50 10 0 6 -27 10 -61 10 -59 0 -89 -13 -89 -39 0 -6 -5 -11 -11 -11
-14 0 -39 -25 -39 -39 0 -6 -5 -11 -11 -11 -30 0 -39 -30 -39 -124 0 -57 4
-96 10 -96 6 0 10 -7 10 -15 0 -9 9 -15 25 -15 16 0 25 6 25 15 0 8 5 15 11
15 14 0 39 25 39 39 0 6 18 11 40 11 22 0 40 5 40 10 0 6 7 10 15 10 12 0 15
13 15 61 0 82 8 89 114 89 70 0 86 3 86 15 0 12 17 15 96 15 94 0 124 9 124
39 0 6 7 11 15 11 11 0 15 12 15 46 0 44 16 74 39 74 6 0 11 7 11 15 0 9 9 15
25 15 14 0 25 5 25 10 0 6 11 10 25 10 14 0 25 5 25 11 0 23 30 39 74 39 34 0
46 4 46 15 0 8 5 15 11 15 6 0 17 6 25 14 8 8 14 19 14 25 0 6 5 11 11 11 17
0 39 27 39 49 0 12 6 21 15 21 8 0 15 7 15 15 0 9 9 15 25 15 16 0 25 -6 25
-15 0 -8 5 -15 10 -15 6 0 10 -9 10 -21 0 -22 -22 -49 -39 -49 -6 0 -11 -7
-11 -15 0 -8 -4 -15 -10 -15 -5 0 -10 -16 -10 -35 0 -19 5 -35 10 -35 6 0 10
-7 10 -15 0 -9 9 -15 25 -15 16 0 25 6 25 15 0 8 7 15 15 15 9 0 15 9 15 21 0
22 22 49 39 49 7 0 11 25 11 65 0 51 -3 65 -15 65 -8 0 -15 5 -15 10 0 6 -16
10 -35 10 -24 0 -35 5 -35 15 0 8 -7 15 -15 15 -9 0 -15 9 -15 25 0 14 -4 25
-10 25 -6 0 -10 40 -10 100 0 60 4 100 10 100 6 0 10 16 10 35 0 19 -4 35 -10
35 -5 0 -10 7 -10 15 0 9 -9 15 -25 15 -16 0 -25 -6 -25 -15z"/>
<path d="M5453 5495 c-7 -8 -13 -19 -13 -25 0 -5 -7 -10 -15 -10 -9 0 -15 -9
-15 -25 0 -14 -4 -25 -10 -25 -5 0 -10 -11 -10 -25 0 -16 -6 -25 -15 -25 -9 0
-15 -9 -15 -25 0 -14 -4 -25 -10 -25 -5 0 -10 -9 -10 -21 0 -22 22 -49 39 -49
6 0 11 -11 11 -25 0 -14 5 -25 10 -25 6 0 10 -7 10 -15 0 -9 9 -15 25 -15 14
0 25 -4 25 -10 0 -5 18 -10 40 -10 29 0 40 -4 40 -15 0 -12 13 -15 60 -15 33
0 60 -4 60 -10 0 -5 7 -10 15 -10 8 0 15 -5 15 -11 0 -14 25 -39 39 -39 6 0
11 -11 11 -25 0 -14 5 -25 10 -25 6 0 10 -7 10 -15 0 -8 5 -15 11 -15 14 0 39
-25 39 -39 0 -6 5 -11 11 -11 14 0 39 -25 39 -39 0 -7 25 -11 65 -11 51 0 65
3 65 15 0 8 7 15 15 15 9 0 15 9 15 25 0 16 -6 25 -15 25 -8 0 -15 5 -15 10 0
6 -11 10 -25 10 -16 0 -25 6 -25 15 0 9 -9 15 -25 15 -14 0 -25 5 -25 10 0 6
-7 10 -15 10 -8 0 -15 5 -15 11 0 14 -25 39 -39 39 -6 0 -11 7 -11 15 0 9 -9
15 -25 15 -14 0 -25 5 -25 10 0 6 -11 10 -25 10 -16 0 -25 6 -25 15 0 10 -11
15 -35 15 -19 0 -35 5 -35 10 0 6 -7 10 -15 10 -8 0 -15 5 -15 11 0 14 -25 39
-39 39 -6 0 -11 5 -11 11 0 14 -25 39 -39 39 -6 0 -11 18 -11 40 0 29 4 40 15
40 12 0 15 15 15 75 0 60 -3 75 -15 75 -8 0 -15 5 -15 10 0 15 -43 11 -57 -5z"/>
<path d="M3290 5425 c0 -8 -7 -15 -15 -15 -10 0 -15 -11 -15 -35 0 -24 5 -35
15 -35 8 0 15 -7 15 -15 0 -9 9 -15 25 -15 14 0 25 5 25 11 0 14 25 39 39 39
6 0 11 11 11 25 0 16 -6 25 -15 25 -8 0 -15 7 -15 15 0 10 -11 15 -35 15 -24
0 -35 -5 -35 -15z"/>
<path d="M6370 5375 c0 -8 -7 -15 -15 -15 -10 0 -15 -11 -15 -35 0 -24 5 -35
15 -35 8 0 15 -5 15 -11 0 -14 25 -39 39 -39 6 0 11 -16 11 -36 0 -35 18 -64
39 -64 6 0 11 -11 11 -25 0 -14 5 -25 10 -25 6 0 10 -11 10 -25 0 -16 6 -25
15 -25 9 0 15 -9 15 -25 0 -14 5 -25 10 -25 6 0 10 -7 10 -15 0 -8 7 -15 15
-15 9 0 15 -9 15 -25 0 -14 -5 -25 -11 -25 -17 0 -39 -27 -39 -49 0 -12 5 -21
10 -21 6 0 10 -7 10 -15 0 -9 9 -15 25 -15 16 0 25 6 25 15 0 9 9 15 25 15 14
0 25 5 25 10 0 6 7 10 15 10 8 0 15 5 15 11 0 17 27 39 49 39 12 0 21 -4 21
-10 0 -6 37 -10 90 -10 53 0 90 4 90 10 0 6 11 10 25 10 14 0 25 -4 25 -10 0
-5 16 -10 35 -10 24 0 35 -5 35 -15 0 -8 5 -15 11 -15 14 0 39 -25 39 -39 0
-6 6 -11 14 -11 8 0 17 -6 19 -12 3 -7 5 118 5 277 0 160 -2 284 -5 278 -2 -7
-11 -13 -19 -13 -8 0 -14 -5 -14 -11 0 -14 -25 -39 -39 -39 -6 0 -11 -16 -11
-36 0 -35 -18 -64 -39 -64 -6 0 -11 -5 -11 -11 0 -23 -30 -39 -74 -39 -34 0
-46 -4 -46 -15 0 -8 -5 -15 -11 -15 -6 0 -17 -6 -25 -14 -8 -8 -14 -19 -14
-25 0 -6 -5 -11 -11 -11 -6 0 -17 -6 -25 -14 -8 -8 -14 -19 -14 -25 0 -6 -18
-11 -40 -11 -22 0 -40 5 -40 11 0 17 -27 39 -49 39 -12 0 -21 6 -21 15 0 8 -5
15 -11 15 -14 0 -39 25 -39 39 0 6 -7 11 -15 11 -11 0 -15 12 -15 46 0 49 -16
74 -49 74 -12 0 -21 6 -21 15 0 8 -7 15 -15 15 -10 0 -15 11 -15 35 0 19 -4
35 -10 35 -5 0 -10 7 -10 15 0 9 -9 15 -25 15 -16 0 -25 -6 -25 -15z"/>
<path d="M5090 5200 c0 -5 -11 -10 -25 -10 -16 0 -25 -6 -25 -15 0 -9 -9 -15
-25 -15 -14 0 -25 -4 -25 -10 0 -5 -7 -10 -15 -10 -11 0 -15 -12 -15 -50 0
-38 4 -50 15 -50 8 0 15 -7 15 -15 0 -8 5 -15 10 -15 6 0 10 7 10 15 0 8 5 15
11 15 6 0 17 6 25 14 8 8 14 19 14 25 0 6 7 11 15 11 8 0 15 5 15 10 0 6 11
10 25 10 16 0 25 6 25 15 0 8 5 15 10 15 15 0 12 39 -4 56 -17 16 -56 19 -56
4z"/>
<path d="M1780 4879 c0 -14 -25 -39 -39 -39 -6 0 -11 -11 -11 -25 0 -14 -4
-25 -10 -25 -5 0 -10 -7 -10 -15 0 -8 -5 -15 -11 -15 -14 0 -39 -25 -39 -39 0
-6 -5 -11 -11 -11 -20 0 -39 -29 -39 -60 0 -36 20 -60 49 -60 12 0 21 -6 21
-15 0 -9 9 -15 25 -15 16 0 25 6 25 15 0 8 5 15 11 15 27 0 39 30 39 99 0 56
3 71 15 71 8 0 15 5 15 11 0 14 25 39 39 39 6 0 11 11 11 25 0 16 -6 25 -15
25 -8 0 -15 7 -15 15 0 9 -9 15 -25 15 -14 0 -25 -5 -25 -11z"/>
<path d="M3910 4875 c0 -13 -22 -15 -135 -15 -83 0 -135 -4 -135 -10 0 -5 -7
-10 -15 -10 -9 0 -15 -9 -15 -25 0 -16 6 -25 15 -25 8 0 15 -7 15 -15 0 -12
17 -15 96 -15 94 0 124 -9 124 -39 0 -6 11 -11 25 -11 14 0 25 -4 25 -10 0 -5
7 -10 15 -10 8 0 15 -5 15 -11 0 -14 25 -39 39 -39 6 0 11 -5 11 -11 0 -14 25
-39 39 -39 6 0 11 -11 11 -25 0 -14 5 -25 10 -25 6 0 10 -7 10 -15 0 -8 5 -15
11 -15 17 0 39 -27 39 -49 0 -12 6 -21 15 -21 11 0 15 -12 15 -50 0 -27 5 -50
10 -50 6 0 10 -28 10 -65 0 -51 3 -65 15 -65 12 0 15 -16 15 -85 0 -50 4 -85
10 -85 6 0 10 -7 10 -15 0 -8 5 -15 11 -15 6 0 17 -6 25 -14 8 -8 14 -19 14
-25 0 -6 7 -11 15 -11 9 0 15 -9 15 -25 0 -14 5 -25 10 -25 6 0 10 -11 10 -25
0 -14 5 -25 11 -25 17 0 39 -27 39 -49 0 -12 -4 -21 -10 -21 -5 0 -10 -18 -10
-40 0 -22 -5 -40 -11 -40 -6 0 -17 -6 -25 -14 -8 -8 -14 -19 -14 -25 0 -6 -7
-11 -15 -11 -9 0 -15 -9 -15 -25 0 -16 6 -25 15 -25 8 0 15 -4 15 -10 0 -15
39 -12 56 4 8 9 14 34 14 60 0 34 4 46 15 46 11 0 15 12 15 50 0 28 5 50 10
50 6 0 10 7 10 15 0 11 11 15 40 15 22 0 40 5 40 10 0 6 11 10 25 10 16 0 25
6 25 15 0 8 5 15 10 15 6 0 10 16 10 35 0 24 5 35 15 35 11 0 15 12 15 50 0
38 -4 50 -15 50 -8 0 -15 7 -15 15 0 9 -9 15 -25 15 -14 0 -25 -5 -25 -11 0
-17 -27 -39 -49 -39 -12 0 -21 5 -21 10 0 6 -7 10 -15 10 -11 0 -15 12 -15 50
0 28 -4 50 -10 50 -5 0 -10 11 -10 25 0 16 -6 25 -15 25 -8 0 -15 7 -15 15 0
9 -9 15 -21 15 -36 0 -49 24 -49 89 0 48 -3 61 -15 61 -12 0 -15 16 -15 85 0
50 -4 85 -10 85 -5 0 -10 7 -10 15 0 11 -11 15 -36 15 -35 0 -64 18 -64 39 0
6 -7 11 -15 11 -8 0 -15 5 -15 10 0 6 -11 10 -25 10 -14 0 -25 5 -25 11 0 14
-25 39 -39 39 -6 0 -11 11 -11 25 0 16 6 25 15 25 8 0 15 5 15 11 0 14 25 39
39 39 6 0 11 11 11 25 0 16 -6 25 -15 25 -8 0 -15 7 -15 15 0 12 -15 15 -75
15 -60 0 -75 -3 -75 -15z"/>
<path d="M2860 4825 c0 -8 -4 -15 -10 -15 -15 0 -12 -39 4 -56 17 -16 106 -20
106 -4 0 6 7 10 15 10 9 0 15 9 15 25 0 16 -6 25 -15 25 -8 0 -15 7 -15 15 0
11 -12 15 -50 15 -38 0 -50 -4 -50 -15z"/>
<path d="M3110 4775 c0 -8 -4 -15 -10 -15 -15 0 -12 -39 4 -56 8 -8 31 -14 50
-14 25 0 36 -4 36 -15 0 -12 15 -15 75 -15 60 0 75 3 75 15 0 8 5 15 10 15 15
0 12 39 -4 56 -10 9 -36 14 -75 14 -48 0 -61 3 -61 15 0 11 -12 15 -50 15 -38
0 -50 -4 -50 -15z"/>
<path d="M6090 4750 c0 -5 -16 -10 -35 -10 -24 0 -35 -5 -35 -15 0 -8 -7 -15
-15 -15 -9 0 -15 -9 -15 -25 0 -16 6 -25 15 -25 8 0 15 -4 15 -10 0 -5 16 -10
35 -10 19 0 35 5 35 10 0 6 11 10 25 10 16 0 25 6 25 15 0 8 7 15 15 15 9 0
15 9 15 25 0 16 -6 25 -15 25 -8 0 -15 5 -15 10 0 6 -11 10 -25 10 -14 0 -25
-4 -25 -10z"/>
<path d="M1560 4500 c0 -5 -7 -10 -15 -10 -9 0 -15 -9 -15 -25 0 -16 6 -25 15
-25 8 0 15 -5 15 -11 0 -14 25 -39 39 -39 6 0 11 -7 11 -15 0 -10 11 -15 35
-15 24 0 35 5 35 15 0 9 9 15 25 15 16 0 25 -6 25 -15 0 -8 7 -15 15 -15 8 0
15 -4 15 -10 0 -15 39 -12 56 4 28 29 10 106 -25 106 -6 0 -11 5 -11 11 0 21
-29 39 -64 39 -20 0 -36 -4 -36 -10 0 -5 -11 -10 -25 -10 -14 0 -25 5 -25 10
0 6 -16 10 -35 10 -19 0 -35 -4 -35 -10z"/>
<path d="M6340 4375 c0 -8 -4 -15 -10 -15 -5 0 -10 -16 -10 -35 0 -19 5 -35
10 -35 6 0 10 -11 10 -25 0 -14 -4 -25 -10 -25 -5 0 -10 -11 -10 -25 0 -14 5
-25 10 -25 6 0 10 -7 10 -15 0 -9 9 -15 25 -15 14 0 25 -4 25 -10 0 -5 7 -10
15 -10 8 0 15 -5 15 -11 0 -14 25 -39 39 -39 6 0 11 -5 11 -11 0 -17 27 -39
49 -39 12 0 21 -6 21 -15 0 -9 9 -15 25 -15 14 0 25 -4 25 -10 0 -5 11 -10 25
-10 14 0 25 5 25 10 0 6 7 10 15 10 11 0 15 11 15 40 0 29 -4 40 -15 40 -9 0
-15 9 -15 21 0 22 -22 49 -39 49 -6 0 -11 7 -11 15 0 10 -11 15 -35 15 -19 0
-35 5 -35 10 0 6 -7 10 -15 10 -9 0 -15 9 -15 25 0 14 -4 25 -10 25 -5 0 -10
11 -10 25 0 16 -6 25 -15 25 -9 0 -15 9 -15 25 0 14 -4 25 -10 25 -5 0 -10 7
-10 15 0 11 -11 15 -40 15 -29 0 -40 -4 -40 -15z"/>
<path d="M871 4278 c-1 -74 2 -88 15 -88 28 0 44 27 44 74 0 25 -4 46 -10 46
-5 0 -10 7 -10 15 0 8 -6 15 -14 15 -8 0 -17 6 -19 13 -3 6 -6 -27 -6 -75z"/>
<path d="M1410 4325 c0 -8 -7 -15 -15 -15 -9 0 -15 -9 -15 -25 0 -16 6 -25 15
-25 8 0 15 -4 15 -10 0 -5 16 -10 35 -10 19 0 35 5 35 10 0 6 7 10 15 10 9 0
15 9 15 25 0 16 -6 25 -15 25 -8 0 -15 7 -15 15 0 10 -11 15 -35 15 -24 0 -35
-5 -35 -15z"/>
<path d="M5740 4275 c0 -8 -5 -15 -11 -15 -35 0 -53 -77 -25 -106 17 -16 56
-19 56 -4 0 6 18 10 40 10 22 0 40 -4 40 -10 0 -6 27 -10 61 -10 70 0 89 13
89 60 0 36 -20 60 -49 60 -12 0 -21 6 -21 15 0 12 -17 15 -90 15 -73 0 -90 -3
-90 -15z"/>
<path d="M6083 4195 c-7 -8 -13 -19 -13 -25 0 -5 -5 -10 -11 -10 -27 0 -39
-30 -39 -99 0 -41 4 -71 10 -71 6 0 10 -7 10 -15 0 -11 12 -15 50 -15 38 0 50
4 50 15 0 8 7 15 15 15 11 0 15 12 15 50 0 28 5 50 10 50 6 0 10 16 10 35 0
19 -4 35 -10 35 -5 0 -10 7 -10 15 0 8 -7 15 -15 15 -8 0 -15 5 -15 10 0 15
-43 11 -57 -5z"/>
<path d="M1460 4025 c0 -8 -7 -15 -15 -15 -9 0 -15 -9 -15 -25 0 -14 5 -25 11
-25 14 0 39 -25 39 -39 0 -6 7 -11 15 -11 8 0 15 -4 15 -10 0 -5 16 -10 35
-10 19 0 35 5 35 10 0 6 7 10 15 10 11 0 15 11 15 40 0 22 -5 40 -11 40 -14 0
-39 25 -39 39 0 6 -21 11 -50 11 -38 0 -50 -4 -50 -15z"/>
<path d="M2410 4025 c0 -8 -4 -15 -10 -15 -5 0 -10 -16 -10 -35 0 -19 5 -35
10 -35 6 0 10 -7 10 -15 0 -8 5 -15 11 -15 14 0 39 -25 39 -39 0 -6 5 -11 11
-11 14 0 39 -25 39 -39 0 -6 11 -11 25 -11 16 0 25 6 25 15 0 8 5 15 11 15 17
0 39 27 39 49 0 12 -4 21 -10 21 -5 0 -10 7 -10 15 0 8 -7 15 -15 15 -9 0 -15
9 -15 21 0 22 -22 49 -39 49 -6 0 -11 7 -11 15 0 11 -12 15 -50 15 -38 0 -50
-4 -50 -15z"/>
<path d="M4653 3895 c-15 -17 -17 -55 -3 -55 6 0 10 -18 10 -40 0 -29 4 -40
15 -40 9 0 15 -9 15 -25 0 -14 5 -25 10 -25 6 0 10 -16 10 -35 0 -24 5 -35 15
-35 8 0 15 -7 15 -15 0 -10 11 -15 35 -15 19 0 35 -4 35 -10 0 -5 11 -10 25
-10 14 0 25 5 25 10 0 6 7 10 15 10 11 0 15 12 15 50 0 38 -4 50 -15 50 -8 0
-15 5 -15 11 0 14 -25 39 -39 39 -6 0 -11 5 -11 11 0 14 -25 39 -39 39 -6 0
-11 7 -11 15 0 8 -4 15 -10 15 -5 0 -10 11 -10 25 0 16 -6 25 -15 25 -8 0 -15
5 -15 10 0 15 -43 11 -57 -5z"/>
<path d="M1960 3875 c0 -8 -7 -15 -15 -15 -11 0 -15 -12 -15 -50 0 -27 -4 -50
-10 -50 -5 0 -10 -16 -10 -35 0 -19 5 -35 10 -35 6 0 10 -7 10 -15 0 -12 14
-15 65 -15 51 0 65 3 65 15 0 8 5 15 10 15 6 0 10 11 10 25 0 16 6 25 15 25
10 0 15 11 15 35 0 24 -5 35 -15 35 -8 0 -15 5 -15 11 0 14 -25 39 -39 39 -6
0 -11 7 -11 15 0 10 -11 15 -35 15 -24 0 -35 -5 -35 -15z"/>
<path d="M5810 3825 c0 -8 -4 -15 -10 -15 -5 0 -10 -22 -10 -50 0 -27 5 -50
10 -50 6 0 10 -16 10 -35 0 -19 -4 -35 -10 -35 -5 0 -10 -11 -10 -25 0 -16 -6
-25 -15 -25 -9 0 -15 -9 -15 -25 0 -14 -4 -25 -10 -25 -5 0 -10 -22 -10 -50 0
-27 5 -50 10 -50 6 0 10 -7 10 -15 0 -9 9 -15 25 -15 16 0 25 6 25 15 0 8 5
15 11 15 17 0 39 27 39 49 0 12 6 21 15 21 11 0 15 12 15 50 0 38 4 50 15 50
9 0 15 9 15 25 0 16 -6 25 -15 25 -11 0 -15 11 -15 40 0 29 4 40 15 40 10 0
15 11 15 35 0 24 -5 35 -15 35 -8 0 -15 7 -15 15 0 11 -11 15 -40 15 -29 0
-40 -4 -40 -15z"/>
<path d="M4090 3775 c0 -8 -7 -15 -15 -15 -11 0 -15 -12 -15 -50 0 -38 4 -50
15 -50 8 0 15 -4 15 -10 0 -15 39 -12 56 4 16 17 20 106 4 106 -5 0 -10 7 -10
15 0 9 -9 15 -25 15 -16 0 -25 -6 -25 -15z"/>
<path d="M6670 3775 c0 -8 -7 -15 -15 -15 -9 0 -15 -9 -15 -21 0 -11 -6 -27
-14 -35 -17 -16 -56 -19 -56 -4 0 6 -7 10 -15 10 -8 0 -15 7 -15 15 0 9 -9 15
-25 15 -16 0 -25 -6 -25 -15 0 -8 -4 -15 -10 -15 -5 0 -10 -16 -10 -35 0 -19
5 -35 10 -35 6 0 10 -7 10 -15 0 -11 11 -15 40 -15 22 0 40 -4 40 -10 0 -5 11
-10 25 -10 16 0 25 -6 25 -15 0 -9 9 -15 25 -15 14 0 25 5 25 11 0 26 30 39
89 39 48 0 61 3 61 15 0 8 5 15 10 15 6 0 10 16 10 35 0 19 -4 35 -10 35 -5 0
-10 7 -10 15 0 8 -7 15 -15 15 -8 0 -15 5 -15 10 0 6 -11 10 -25 10 -16 0 -25
6 -25 15 0 10 -11 15 -35 15 -24 0 -35 -5 -35 -15z"/>
<path d="M3140 3600 c0 -5 -18 -10 -40 -10 -29 0 -40 -4 -40 -15 0 -8 -4 -15
-10 -15 -5 0 -10 -11 -10 -25 0 -14 5 -25 10 -25 6 0 10 -11 10 -25 0 -14 5
-25 11 -25 6 0 17 -6 25 -14 8 -8 14 -19 14 -25 0 -6 11 -11 25 -11 16 0 25 6
25 15 0 11 11 15 36 15 35 0 64 18 64 39 0 6 5 11 11 11 17 0 39 27 39 49 0
12 -4 21 -10 21 -5 0 -10 7 -10 15 0 9 -9 15 -25 15 -14 0 -25 5 -25 10 0 6
-22 10 -50 10 -27 0 -50 -4 -50 -10z"/>
<path d="M6370 3600 c0 -5 -7 -10 -15 -10 -9 0 -15 -9 -15 -25 0 -16 6 -25 15
-25 9 0 15 -9 15 -25 0 -16 -6 -25 -15 -25 -8 0 -15 -7 -15 -15 0 -12 -16 -15
-85 -15 -50 0 -85 -4 -85 -10 0 -5 -7 -10 -15 -10 -8 0 -15 -7 -15 -15 0 -8
-4 -15 -10 -15 -6 0 -10 -27 -10 -60 0 -33 4 -60 10 -60 6 0 10 -7 10 -15 0
-12 17 -15 90 -15 73 0 90 3 90 15 0 8 5 15 10 15 6 0 10 11 10 25 0 14 5 25
11 25 14 0 39 25 39 39 0 6 11 11 25 11 14 0 25 5 25 10 0 6 7 10 15 10 8 0
15 7 15 15 0 8 5 15 10 15 6 0 10 11 10 25 0 14 -4 25 -10 25 -5 0 -10 23 -10
50 0 38 -4 50 -15 50 -8 0 -15 5 -15 10 0 6 -16 10 -35 10 -19 0 -35 -4 -35
-10z"/>
<path d="M2073 3495 c-7 -8 -13 -23 -13 -35 0 -11 -7 -20 -15 -20 -8 0 -15 -7
-15 -15 0 -8 -4 -15 -10 -15 -5 0 -10 -16 -10 -35 0 -19 5 -35 10 -35 6 0 10
-7 10 -15 0 -11 11 -15 40 -15 29 0 40 4 40 15 0 8 5 15 11 15 14 0 39 25 39
39 0 6 11 11 25 11 14 0 25 5 25 10 0 6 7 10 15 10 8 0 15 7 15 15 0 8 -5 15
-11 15 -14 0 -39 25 -39 39 0 6 -7 11 -15 11 -8 0 -15 5 -15 10 0 15 -73 11
-87 -5z"/>
<path d="M5103 3445 c-15 -17 -17 -55 -3 -55 6 0 10 -7 10 -15 0 -8 7 -15 15
-15 8 0 15 -4 15 -10 0 -15 39 -12 56 4 16 17 19 56 4 56 -5 0 -10 7 -10 15 0
8 -7 15 -15 15 -8 0 -15 5 -15 10 0 15 -43 11 -57 -5z"/>
<path d="M2760 3425 c0 -8 -4 -15 -10 -15 -5 0 -10 -21 -10 -46 0 -44 16 -74
39 -74 6 0 11 -7 11 -15 0 -9 9 -15 25 -15 16 0 25 6 25 15 0 9 9 15 25 15 14
0 25 5 25 10 0 6 11 10 25 10 16 0 25 6 25 15 0 8 5 15 10 15 15 0 12 39 -4
56 -8 8 -24 14 -35 14 -12 0 -21 6 -21 15 0 12 -14 15 -65 15 -51 0 -65 -3
-65 -15z"/>
<path d="M3540 3275 c0 -8 -5 -15 -11 -15 -6 0 -17 -6 -25 -14 -8 -8 -14 -19
-14 -25 0 -6 -7 -11 -15 -11 -8 0 -15 -4 -15 -10 0 -5 -22 -10 -50 -10 -38 0
-50 -4 -50 -15 0 -8 -4 -15 -10 -15 -5 0 -10 -21 -10 -46 0 -44 16 -74 39 -74
6 0 11 -7 11 -15 0 -12 13 -15 60 -15 47 0 60 3 60 15 0 8 5 15 11 15 21 0 39
29 39 64 0 25 4 36 15 36 10 0 15 11 15 35 0 19 5 35 10 35 6 0 10 11 10 25 0
14 -4 25 -10 25 -5 0 -10 7 -10 15 0 9 -9 15 -25 15 -16 0 -25 -6 -25 -15z"/>
<path d="M7122 3278 c-1 -10 -7 -18 -13 -18 -14 0 -39 -25 -39 -39 0 -6 -21
-11 -50 -11 -27 0 -50 -4 -50 -10 0 -5 -7 -10 -15 -10 -11 0 -15 -11 -15 -40
0 -29 4 -40 15 -40 12 0 15 -13 15 -60 0 -47 -3 -60 -15 -60 -8 0 -15 -5 -15
-11 0 -14 -25 -39 -39 -39 -6 0 -11 -11 -11 -25 0 -16 6 -25 15 -25 11 0 15
-11 15 -40 0 -29 -4 -40 -15 -40 -9 0 -15 -9 -15 -21 0 -22 -22 -49 -39 -49
-6 0 -11 -7 -11 -15 0 -9 -9 -15 -21 -15 -43 0 -65 -55 -35 -86 29 -28 106
-10 106 25 0 6 7 11 15 11 8 0 15 7 15 15 0 12 13 15 60 15 47 0 60 -3 60 -15
0 -8 7 -15 15 -15 8 0 15 -7 15 -15 0 -10 10 -15 30 -15 l30 0 0 74 c0 83 -6
106 -26 106 -8 0 -14 7 -14 15 0 8 -4 15 -10 15 -5 0 -10 9 -10 21 0 21 21 49
38 49 12 0 22 35 22 82 0 46 -8 68 -26 68 -10 0 -14 14 -14 50 0 37 4 50 15
50 17 0 28 51 22 101 -2 19 -5 26 -5 17z"/>
<path d="M4040 3225 c0 -8 -7 -15 -15 -15 -9 0 -15 -9 -15 -25 0 -16 6 -25 15
-25 8 0 15 -4 15 -10 0 -15 39 -12 56 4 16 17 19 56 4 56 -5 0 -10 7 -10 15 0
9 -9 15 -25 15 -16 0 -25 -6 -25 -15z"/>
<path d="M6670 3150 c0 -5 -7 -10 -15 -10 -8 0 -15 -7 -15 -15 0 -8 -4 -15
-10 -15 -5 0 -10 -22 -10 -50 0 -38 -4 -50 -15 -50 -12 0 -15 -15 -15 -75 0
-47 4 -75 11 -75 14 0 39 -25 39 -39 0 -6 11 -11 25 -11 16 0 25 6 25 15 0 8
7 15 15 15 11 0 15 12 15 50 0 29 -5 50 -11 50 -20 0 -39 29 -39 60 0 36 20
60 49 60 12 0 21 6 21 15 0 8 7 15 15 15 9 0 15 9 15 25 0 16 -6 25 -15 25 -8
0 -15 5 -15 10 0 6 -16 10 -35 10 -19 0 -35 -4 -35 -10z"/>
<path d="M2390 3100 c0 -5 -7 -10 -15 -10 -11 0 -15 -12 -15 -50 0 -38 4 -50
15 -50 8 0 15 -7 15 -15 0 -9 9 -15 25 -15 14 0 25 5 25 11 0 14 25 39 39 39
6 0 11 11 11 25 0 16 -6 25 -15 25 -8 0 -15 5 -15 11 0 17 -27 39 -49 39 -12
0 -21 -4 -21 -10z"/>
<path d="M5810 3079 c0 -14 -25 -39 -39 -39 -7 0 -11 -24 -11 -61 0 -65 -13
-89 -49 -89 -12 0 -21 -6 -21 -15 0 -9 -9 -15 -25 -15 -14 0 -25 -4 -25 -10 0
-5 -7 -10 -15 -10 -9 0 -15 -9 -15 -25 0 -14 -4 -25 -10 -25 -5 0 -10 -22 -10
-50 0 -27 5 -50 10 -50 6 0 10 -7 10 -15 0 -9 9 -15 25 -15 16 0 25 -6 25 -15
0 -9 9 -15 25 -15 14 0 25 -4 25 -10 0 -5 7 -10 15 -10 11 0 15 -11 15 -36 0
-19 6 -42 14 -50 17 -16 56 -19 56 -4 0 6 7 10 15 10 11 0 15 11 15 40 0 22
-5 40 -11 40 -14 0 -39 25 -39 39 0 6 -7 11 -15 11 -8 0 -15 7 -15 15 0 8 -4
15 -10 15 -6 0 -10 27 -10 60 0 33 4 60 10 60 6 0 10 11 10 25 0 16 6 25 15
25 8 0 15 7 15 15 0 12 14 15 65 15 51 0 65 -3 65 -15 0 -9 9 -15 21 -15 33 0
49 -25 49 -74 0 -34 4 -46 15 -46 8 0 15 -7 15 -15 0 -9 9 -15 25 -15 16 0 25
6 25 15 0 8 5 15 10 15 6 0 10 11 10 25 0 16 6 25 15 25 8 0 15 5 15 10 0 6
16 10 35 10 19 0 35 -4 35 -10 0 -5 7 -10 15 -10 8 0 15 -7 15 -15 0 -9 9 -15
25 -15 16 0 25 6 25 15 0 8 5 15 10 15 6 0 10 9 10 21 0 22 -22 49 -39 49 -6
0 -11 7 -11 15 0 9 -9 15 -25 15 -14 0 -25 5 -25 10 0 6 -27 10 -60 10 -47 0
-60 3 -60 15 0 8 -7 15 -15 15 -10 0 -15 11 -15 35 0 19 -4 35 -10 35 -5 0
-10 7 -10 15 0 11 -11 15 -36 15 -35 0 -64 18 -64 39 0 7 -23 11 -55 11 -32 0
-55 -4 -55 -11z"/>
<path d="M1460 2825 c0 -8 -5 -15 -11 -15 -35 0 -53 -77 -25 -106 17 -16 56
-19 56 -4 0 6 7 10 15 10 8 0 15 7 15 15 0 8 5 15 10 15 6 0 10 16 10 35 0 19
-4 35 -10 35 -5 0 -10 7 -10 15 0 9 -9 15 -25 15 -16 0 -25 -6 -25 -15z"/>
<path d="M2060 2700 c0 -5 -7 -10 -15 -10 -11 0 -15 -12 -15 -51 0 -49 -15
-79 -39 -79 -6 0 -11 -7 -11 -15 0 -8 -4 -15 -10 -15 -5 0 -10 -11 -10 -25 0
-14 -5 -25 -11 -25 -17 0 -39 -27 -39 -49 0 -12 5 -21 10 -21 6 0 10 -7 10
-15 0 -8 7 -15 15 -15 8 0 15 -4 15 -10 0 -5 11 -10 25 -10 14 0 25 -5 25 -11
0 -14 25 -39 39 -39 6 0 11 -11 11 -25 0 -14 5 -25 10 -25 6 0 10 -32 10 -75
0 -60 3 -75 15 -75 8 0 15 -7 15 -15 0 -8 5 -15 11 -15 21 0 39 -29 39 -64 0
-25 4 -36 15 -36 10 0 15 -11 15 -35 0 -24 -5 -35 -15 -35 -8 0 -15 -7 -15
-15 0 -8 -4 -15 -10 -15 -5 0 -10 -11 -10 -25 0 -16 -6 -25 -15 -25 -8 0 -15
-4 -15 -10 0 -5 -18 -10 -40 -10 -22 0 -40 -5 -40 -11 0 -14 -25 -39 -39 -39
-6 0 -11 -7 -11 -15 0 -8 7 -15 15 -15 8 0 15 -4 15 -10 0 -6 32 -10 75 -10
60 0 75 -3 75 -15 0 -11 11 -15 36 -15 35 0 64 -18 64 -39 0 -6 5 -11 11 -11
14 0 39 -25 39 -39 0 -6 5 -11 11 -11 14 0 39 -25 39 -39 0 -6 5 -11 11 -11 6
0 17 -6 25 -14 8 -8 14 -19 14 -25 0 -6 21 -11 50 -11 38 0 50 4 50 15 0 8 7
15 15 15 9 0 15 9 15 25 0 14 -5 25 -11 25 -27 0 -39 30 -39 99 0 56 -3 71
-15 71 -8 0 -15 5 -15 11 0 17 -27 39 -49 39 -12 0 -21 6 -21 15 0 9 -9 15
-25 15 -14 0 -25 5 -25 10 0 6 -7 10 -15 10 -8 0 -15 7 -15 15 0 8 -4 15 -10
15 -5 0 -10 16 -10 35 0 24 -5 35 -15 35 -11 0 -15 12 -15 50 0 28 -4 50 -10
50 -5 0 -10 7 -10 15 0 8 -5 15 -11 15 -26 0 -39 30 -39 89 0 37 -4 61 -11 61
-21 0 -39 29 -39 64 0 25 -4 36 -15 36 -12 0 -15 18 -15 100 0 82 3 100 15
100 12 0 15 17 15 90 0 73 -3 90 -15 90 -8 0 -15 5 -15 10 0 6 -11 10 -25 10
-14 0 -25 -4 -25 -10z"/>
<path d="M930 2649 c0 -16 -26 -39 -44 -39 -14 0 -16 -22 -16 -165 0 -143 2
-165 16 -165 18 0 44 -23 44 -39 0 -6 11 -11 25 -11 16 0 25 6 25 15 0 8 7 15
15 15 8 0 15 5 15 10 0 6 11 10 25 10 14 0 25 5 25 11 0 14 25 39 39 39 6 0
11 11 11 25 0 16 -6 25 -15 25 -8 0 -15 7 -15 15 0 9 -9 15 -21 15 -11 0 -27
6 -35 14 -16 16 -19 86 -4 86 6 0 10 11 10 25 0 14 5 25 11 25 17 0 39 27 39
49 0 12 -4 21 -10 21 -5 0 -10 7 -10 15 0 12 -14 15 -65 15 -40 0 -65 -4 -65
-11z"/>
<path d="M5390 2545 c0 -8 -5 -15 -11 -15 -21 0 -39 -29 -39 -64 0 -20 -5 -36
-11 -36 -14 0 -39 -25 -39 -39 0 -6 -7 -11 -15 -11 -8 0 -15 -4 -15 -10 0 -5
-16 -10 -35 -10 -24 0 -35 -5 -35 -15 0 -8 -7 -15 -15 -15 -8 0 -15 -4 -15
-10 0 -5 -11 -10 -25 -10 -16 0 -25 -6 -25 -15 0 -8 -4 -15 -10 -15 -5 0 -10
-16 -10 -35 0 -19 5 -35 10 -35 6 0 10 -7 10 -15 0 -11 11 -15 40 -15 29 0 40
4 40 15 0 12 15 15 75 15 43 0 75 4 75 10 0 6 23 10 50 10 29 0 50 5 50 11 0
14 25 39 39 39 6 0 11 18 11 40 0 22 5 40 10 40 6 0 10 23 10 50 0 28 -4 50
-10 50 -5 0 -10 11 -10 25 0 14 -5 25 -11 25 -14 0 -39 25 -39 39 0 6 -11 11
-25 11 -16 0 -25 -6 -25 -15z"/>
<path d="M1523 2515 c-8 -8 -13 -42 -13 -85 0 -56 -3 -70 -15 -70 -11 0 -15
-12 -15 -50 0 -27 -4 -50 -10 -50 -6 0 -10 -28 -10 -65 0 -51 -3 -65 -15 -65
-8 0 -15 -4 -15 -10 0 -5 -9 -10 -21 -10 -22 0 -49 22 -49 39 0 6 -11 11 -25
11 -16 0 -25 -6 -25 -15 0 -12 -18 -15 -100 -15 -82 0 -100 3 -100 15 0 9 -9
15 -25 15 -14 0 -25 5 -25 10 0 6 -11 10 -25 10 -14 0 -25 -4 -25 -10 0 -5 -7
-10 -15 -10 -9 0 -15 -9 -15 -25 0 -14 -4 -25 -10 -25 -5 0 -10 -16 -10 -36 0
-35 18 -64 39 -64 6 0 11 -5 11 -11 0 -14 25 -39 39 -39 6 0 11 -7 11 -15 0
-8 5 -15 10 -15 6 0 10 -11 10 -25 0 -16 6 -25 15 -25 9 0 15 -9 15 -21 0 -22
22 -49 39 -49 6 0 11 -11 11 -25 0 -14 5 -25 10 -25 6 0 10 -11 10 -25 0 -16
6 -25 15 -25 8 0 15 -5 15 -11 0 -14 25 -39 39 -39 6 0 11 -5 11 -11 0 -14 25
-39 39 -39 6 0 11 -11 11 -25 0 -14 5 -25 10 -25 6 0 10 -7 10 -15 0 -8 7 -15
15 -15 12 0 15 -13 15 -55 l0 -55 75 0 c68 0 75 2 75 20 0 11 5 20 10 20 6 0
10 27 10 60 0 47 3 60 15 60 9 0 15 9 15 25 0 14 5 25 10 25 6 0 10 7 10 15 0
9 9 15 25 15 14 0 25 5 25 10 0 6 7 10 15 10 11 0 15 11 15 40 0 22 -5 40 -11
40 -14 0 -39 25 -39 39 0 6 -5 11 -11 11 -14 0 -39 25 -39 39 0 6 -7 11 -15
11 -8 0 -15 5 -15 10 0 6 -11 10 -25 10 -16 0 -25 6 -25 15 0 8 -4 15 -10 15
-5 0 -10 9 -10 21 0 22 22 49 39 49 6 0 11 7 11 15 0 11 12 15 46 15 44 0 74
16 74 39 0 6 7 11 15 11 9 0 15 9 15 25 0 16 -6 25 -15 25 -9 0 -15 9 -15 25
0 16 6 25 15 25 8 0 15 5 15 10 0 6 11 10 25 10 14 0 25 -4 25 -10 0 -15 39
-12 56 4 16 17 19 56 4 56 -5 0 -10 23 -10 50 0 28 5 50 10 50 6 0 10 7 10 15
0 8 5 15 11 15 23 0 39 30 39 74 0 25 -4 46 -10 46 -5 0 -10 7 -10 15 0 9 -9
15 -25 15 -14 0 -25 5 -25 10 0 17 -222 12 -237 -5z"/>
<path d="M6633 2465 c-27 -30 -8 -105 26 -105 6 0 11 -7 11 -15 0 -9 9 -15 25
-15 16 0 25 6 25 15 0 8 5 15 10 15 16 0 12 89 -4 106 -19 18 -77 18 -93 -1z"/>
<path d="M4910 2195 c0 -9 -9 -15 -25 -15 -14 0 -25 -4 -25 -10 0 -6 -40 -10
-100 -10 -82 0 -100 -3 -100 -15 0 -8 -4 -15 -10 -15 -5 0 -10 -16 -10 -35 0
-19 5 -35 10 -35 6 0 10 -7 10 -15 0 -9 9 -15 25 -15 14 0 25 -4 25 -10 0 -5
7 -10 15 -10 11 0 15 -11 15 -40 0 -36 3 -40 25 -40 20 0 25 5 25 25 0 14 5
25 10 25 6 0 10 7 10 15 0 8 7 15 15 15 8 0 15 5 15 10 0 6 16 10 35 10 24 0
35 5 35 15 0 8 5 15 11 15 14 0 39 25 39 39 0 6 5 11 11 11 17 0 39 27 39 49
0 12 -4 21 -10 21 -5 0 -10 7 -10 15 0 11 -11 15 -40 15 -29 0 -40 -4 -40 -15z"/>
<path d="M3840 2145 c0 -8 -5 -15 -11 -15 -17 0 -39 -27 -39 -49 0 -12 5 -21
10 -21 6 0 10 -7 10 -15 0 -8 5 -15 11 -15 14 0 39 -25 39 -39 0 -6 7 -11 15
-11 8 0 15 -4 15 -10 0 -5 11 -10 25 -10 16 0 25 -6 25 -15 0 -10 11 -15 35
-15 19 0 35 -4 35 -10 0 -5 7 -10 15 -10 8 0 15 -7 15 -15 0 -9 9 -15 25 -15
14 0 25 5 25 11 0 14 25 39 39 39 6 0 11 5 11 11 0 14 25 39 39 39 6 0 11 11
11 25 0 16 -6 25 -15 25 -8 0 -15 7 -15 15 0 12 -15 15 -71 15 -69 0 -99 12
-99 39 0 6 -5 11 -11 11 -14 0 -39 25 -39 39 0 6 -21 11 -50 11 -38 0 -50 -4
-50 -15z"/>
<path d="M6620 1995 c0 -12 -16 -15 -86 -15 -96 0 -114 -9 -114 -60 0 -31 19
-60 39 -60 6 0 11 -7 11 -15 0 -11 12 -15 46 -15 44 0 74 -16 74 -39 0 -6 11
-11 25 -11 16 0 25 6 25 15 0 8 5 15 11 15 27 0 39 30 39 99 0 41 -4 71 -10
71 -5 0 -10 7 -10 15 0 9 -9 15 -25 15 -16 0 -25 -6 -25 -15z"/>
<path d="M3510 1945 c0 -8 -4 -15 -10 -15 -5 0 -10 -21 -10 -46 0 -44 16 -74
39 -74 6 0 11 -7 11 -15 0 -9 9 -15 25 -15 16 0 25 6 25 15 0 8 5 15 10 15 6
0 10 16 10 35 0 19 -4 35 -10 35 -5 0 -10 11 -10 25 0 16 -6 25 -15 25 -8 0
-15 7 -15 15 0 9 -9 15 -25 15 -16 0 -25 -6 -25 -15z"/>
<path d="M5790 1945 c0 -8 -5 -15 -11 -15 -20 0 -39 -29 -39 -60 0 -36 20 -60
49 -60 12 0 21 -6 21 -15 0 -9 9 -15 25 -15 14 0 25 -4 25 -10 0 -5 18 -10 40
-10 22 0 40 5 40 10 0 6 7 10 15 10 11 0 15 11 15 40 0 22 -5 40 -11 40 -17 0
-39 27 -39 49 0 12 -6 21 -15 21 -8 0 -15 7 -15 15 0 11 -12 15 -50 15 -38 0
-50 -4 -50 -15z"/>
<path d="M4353 1915 c-27 -30 -8 -105 26 -105 6 0 11 -7 11 -15 0 -10 11 -15
35 -15 24 0 35 5 35 15 0 9 9 15 25 15 14 0 25 5 25 10 0 6 7 10 15 10 11 0
15 11 15 40 0 29 -4 40 -15 40 -8 0 -15 5 -15 10 0 16 -143 12 -157 -5z"/>
<path d="M7120 1820 c0 -5 -7 -10 -15 -10 -11 0 -15 -12 -15 -50 0 -27 -4 -50
-10 -50 -5 0 -10 -7 -10 -15 0 -8 -7 -15 -15 -15 -10 0 -15 -11 -15 -35 0 -24
5 -35 15 -35 8 0 15 -5 15 -11 0 -16 26 -39 44 -39 14 0 16 19 16 135 0 74 -2
135 -5 135 -3 0 -5 -4 -5 -10z"/>
<path d="M3890 1695 c0 -12 -18 -15 -100 -15 -60 0 -100 -4 -100 -10 0 -5 -7
-10 -15 -10 -11 0 -15 -12 -15 -50 0 -38 4 -50 15 -50 11 0 15 -11 15 -40 0
-22 5 -40 10 -40 6 0 10 -11 10 -24 0 -28 21 -36 98 -36 l52 0 0 45 c0 25 5
45 11 45 14 0 39 25 39 39 0 6 11 11 25 11 14 0 25 5 25 10 0 6 7 10 15 10 11
0 15 12 15 50 0 38 -4 50 -15 50 -8 0 -15 7 -15 15 0 10 -11 15 -35 15 -24 0
-35 -5 -35 -15z"/>
<path d="M6833 1665 c-7 -8 -13 -19 -13 -25 0 -5 -7 -10 -15 -10 -10 0 -15
-11 -15 -35 0 -24 5 -35 15 -35 8 0 15 -7 15 -15 0 -9 9 -15 25 -15 14 0 25 5
25 11 0 14 25 39 39 39 6 0 11 7 11 15 0 8 5 15 10 15 15 0 12 39 -4 56 -19
18 -77 18 -93 -1z"/>
<path d="M3210 1620 c0 -5 -11 -10 -25 -10 -16 0 -25 -6 -25 -15 0 -8 -4 -15
-10 -15 -15 0 -12 -39 4 -56 16 -16 86 -19 86 -4 0 6 11 10 25 10 16 0 25 6
25 15 0 8 5 15 10 15 15 0 12 39 -4 56 -16 16 -86 19 -86 4z"/>
</g>
</svg>
