<?xml version="1.0" ?>
<svg xmlns="http://www.w3.org/2000/svg" xmlns:ev="http://www.w3.org/2001/xml-events" xmlns:xlink="http://www.w3.org/1999/xlink" baseProfile="full" height="68px" version="1.1" viewBox="-778.564511768304 -89.87345528242986 9304.039588395353 1039.7469105648593" width="600px">
	<defs/>
	<path d="M 0.0,15.0 C 0.0,7.0 7.0,0.0 15.0,0.0 C 23.0,0.0 30.0,7.0 30.0,15.0 C 30.0,23.0 23.0,30.0 15.0,30.0 C 7.0,30.0 0.0,23.0 0.0,15.0"/>
	<path d="M 50.0,25.0 C 50.0,11.0 55.0,0.0 60.0,0.0 C 66.0,0.0 70.0,11.0 70.0,25.0 C 70.0,39.0 66.0,50.0 60.0,50.0 C 55.0,50.0 50.0,39.0 50.0,25.0"/>
	<path d="M 120.0,90.0 C 120.0,85.0 113.0,80.0 105.0,80.0 C 96.0,80.0 90.0,71.0 90.0,55.0 C 90.0,39.0 96.0,30.0 105.0,30.0 C 113.0,30.0 120.0,23.0 120.0,15.0 C 120.0,7.0 129.0,0.0 140.0,0.0 C 151.0,0.0 160.0,7.0 160.0,15.0 C 160.0,23.0 167.0,30.0 175.0,30.0 C 184.0,30.0 190.0,39.0 190.0,55.0 C 190.0,71.0 184.0,80.0 175.0,80.0 C 167.0,80.0 160.0,85.0 160.0,90.0 C 160.0,96.0 151.0,100.0 140.0,100.0 C 129.0,100.0 120.0,96.0 120.0,90.0"/>
	<path d="M 229.77229805414527,84.77229805414527 C 229.77229805414527,76.77229805414527 225.77229805414527,69.77229805414527 219.77229805414527,69.77229805414527 C 204.77229805414527,69.77229805414527 207.77229805414527,30.772298054145267 223.77229805414527,13.772298054145267 C 240.77229805414527,-2.227701945854733 279.77229805414527,-5.227701945854733 279.77229805414527,9.772298054145267 C 279.77229805414527,15.772298054145267 286.77229805414527,19.772298054145267 294.77229805414527,19.772298054145267 C 303.77229805414527,19.772298054145267 309.77229805414527,28.772298054145267 309.77229805414527,44.77229805414527 C 309.77229805414527,60.77229805414527 303.77229805414527,69.77229805414527 294.77229805414527,69.77229805414527 C 286.77229805414527,69.77229805414527 279.77229805414527,76.77229805414527 279.77229805414527,84.77229805414527 C 279.77229805414527,93.77229805414527 270.77229805414527,99.77229805414527 254.77229805414527,99.77229805414527 C 238.77229805414527,99.77229805414527 229.77229805414527,93.77229805414527 229.77229805414527,84.77229805414527"/>
	<path d="M 342.03332111347345,104.77229805414527 C 325.03332111347345,85.77229805414527 326.03332111347345,31.772298054145267 343.03332111347345,13.772298054145267 C 360.03332111347345,-2.227701945854733 399.03332111347345,-5.227701945854733 399.03332111347345,9.772298054145267 C 399.03332111347345,15.772298054145267 406.03332111347345,19.772298054145267 414.03332111347345,19.772298054145267 C 425.03332111347345,19.772298054145267 429.03332111347345,30.772298054145267 429.03332111347345,59.77229805414527 C 429.03332111347345,88.77229805414527 425.03332111347345,99.77229805414527 414.03332111347345,99.77229805414527 C 406.03332111347345,99.77229805414527 399.03332111347345,104.77229805414527 399.03332111347345,109.77229805414527 C 399.03332111347345,124.77229805414527 356.03332111347345,120.77229805414527 342.03332111347345,104.77229805414527"/>
	<path d="M 479.033321113473,115.0 C 479.033321113473,107.0 472.033321113473,100.0 464.033321113473,100.0 C 455.033321113473,100.0 449.033321113473,91.0 449.033321113473,75.0 C 449.033321113473,61.0 454.033321113473,50.0 460.033321113473,50.0 C 474.033321113473,50.0 499.033321113473,25.0 499.033321113473,11.0 C 499.033321113473,5.0 510.033321113473,0.0 524.033321113473,0.0 C 540.033321113473,0.0 549.033321113473,6.0 549.033321113473,15.0 C 549.033321113473,23.0 556.033321113473,30.0 564.033321113473,30.0 C 573.033321113473,30.0 579.033321113473,39.0 579.033321113473,55.0 C 579.033321113473,69.0 574.033321113473,80.0 568.033321113473,80.0 C 554.033321113473,80.0 529.033321113473,105.0 529.033321113473,119.0 C 529.033321113473,125.0 518.033321113473,130.0 504.033321113473,130.0 C 488.033321113473,130.0 479.033321113473,124.0 479.033321113473,115.0"/>
	<path d="M 611.4889014250618,104.77229805414527 C 596.4889014250618,87.77229805414527 594.4889014250618,49.77229805414527 608.4889014250618,49.77229805414527 C 614.4889014250618,49.77229805414527 618.4889014250618,42.77229805414527 618.4889014250618,34.77229805414527 C 618.4889014250618,26.772298054145267 625.4889014250618,19.772298054145267 633.4889014250618,19.772298054145267 C 641.4889014250618,19.772298054145267 648.4889014250618,15.772298054145267 648.4889014250618,9.772298054145267 C 648.4889014250618,-5.227701945854733 687.4889014250618,-2.227701945854733 704.4889014250618,13.772298054145267 C 722.4889014250618,32.77229805414527 722.4889014250618,86.77229805414527 704.4889014250618,105.77229805414527 C 685.4889014250618,123.77229805414527 627.4889014250618,123.77229805414527 611.4889014250618,104.77229805414527"/>
	<path d="M 767.9889014250618,110.0 C 767.9889014250618,105.0 760.9889014250618,100.0 752.9889014250618,100.0 C 743.9889014250618,100.0 737.9889014250618,91.0 737.9889014250618,75.0 C 737.9889014250618,59.0 743.9889014250618,50.0 752.9889014250618,50.0 C 760.9889014250618,50.0 767.9889014250618,45.0 767.9889014250618,39.0 C 767.9889014250618,22.0 794.9889014250618,0.0 816.9889014250618,0.0 C 828.9889014250618,0.0 837.9889014250618,5.0 837.9889014250618,10.0 C 837.9889014250618,16.0 844.9889014250618,20.0 852.9889014250618,20.0 C 863.9889014250618,20.0 867.9889014250618,31.0 867.9889014250618,60.0 C 867.9889014250618,89.0 863.9889014250618,100.0 852.9889014250618,100.0 C 844.9889014250618,100.0 837.9889014250618,105.0 837.9889014250618,110.0 C 837.9889014250618,116.0 821.9889014250618,120.0 802.9889014250618,120.0 C 783.9889014250618,120.0 767.9889014250618,116.0 767.9889014250618,110.0"/>
	<path d="M 908.1744926960628,134.77229805414527 C 908.1744926960628,126.77229805414527 904.1744926960628,119.77229805414527 898.1744926960628,119.77229805414527 C 882.1744926960628,119.77229805414527 886.1744926960628,30.772298054145267 902.1744926960628,13.772298054145267 C 919.1744926960628,-2.227701945854733 958.1744926960628,-5.227701945854733 958.1744926960628,9.772298054145267 C 958.1744926960628,15.772298054145267 965.1744926960628,19.772298054145267 973.1744926960628,19.772298054145267 C 984.1744926960628,19.772298054145267 988.1744926960628,31.772298054145267 988.1744926960628,69.77229805414527 C 988.1744926960628,107.77229805414527 984.1744926960628,119.77229805414527 973.1744926960628,119.77229805414527 C 965.1744926960628,119.77229805414527 958.1744926960628,126.77229805414527 958.1744926960628,134.77229805414527 C 958.1744926960628,143.77229805414527 949.1744926960628,149.77229805414527 933.1744926960628,149.77229805414527 C 917.1744926960628,149.77229805414527 908.1744926960628,143.77229805414527 908.1744926960628,134.77229805414527"/>
	<path d="M 1057.9467907502076,129.77229805414527 C 1057.9467907502076,124.77229805414527 1050.9467907502076,119.77229805414527 1042.9467907502076,119.77229805414527 C 1034.9467907502076,119.77229805414527 1027.9467907502076,112.77229805414527 1027.9467907502076,104.77229805414527 C 1027.9467907502076,96.77229805414527 1023.9467907502076,89.77229805414527 1017.9467907502076,89.77229805414527 C 1002.9467907502076,89.77229805414527 1005.9467907502076,29.772298054145267 1021.9467907502076,13.772298054145267 C 1038.9467907502076,-2.227701945854733 1077.9467907502076,-5.227701945854733 1077.9467907502076,9.772298054145267 C 1077.9467907502076,15.772298054145267 1082.9467907502076,19.772298054145267 1088.9467907502076,19.772298054145267 C 1123.9467907502076,19.772298054145267 1141.9467907502076,96.77229805414527 1113.9467907502076,125.77229805414527 C 1096.9467907502076,141.77229805414527 1057.9467907502076,144.77229805414527 1057.9467907502076,129.77229805414527"/>
	<path d="M 1167.693915559669,215.0 C 1167.693915559669,207.0 1163.693915559669,200.0 1157.693915559669,200.0 C 1151.693915559669,200.0 1147.693915559669,160.0 1147.693915559669,100.0 C 1147.693915559669,40.0 1151.693915559669,0.0 1157.693915559669,0.0 C 1163.693915559669,0.0 1167.693915559669,7.0 1167.693915559669,15.0 C 1167.693915559669,23.0 1172.693915559669,30.0 1177.693915559669,30.0 C 1183.693915559669,30.0 1187.693915559669,46.0 1187.693915559669,65.0 C 1187.693915559669,89.0 1192.693915559669,100.0 1202.693915559669,100.0 C 1210.693915559669,100.0 1217.693915559669,107.0 1217.693915559669,115.0 C 1217.693915559669,123.0 1222.693915559669,130.0 1227.693915559669,130.0 C 1233.693915559669,130.0 1237.693915559669,146.0 1237.693915559669,165.0 C 1237.693915559669,184.0 1233.693915559669,200.0 1227.693915559669,200.0 C 1222.693915559669,200.0 1217.693915559669,207.0 1217.693915559669,215.0 C 1217.693915559669,224.0 1208.693915559669,230.0 1192.693915559669,230.0 C 1176.693915559669,230.0 1167.693915559669,224.0 1167.693915559669,215.0"/>
	<path d="M 1327.87950683067,185.0 C 1327.87950683067,176.0 1318.87950683067,170.0 1306.87950683067,170.0 C 1295.87950683067,170.0 1279.87950683067,164.0 1271.87950683067,156.0 C 1255.87950683067,139.0 1251.87950683067,50.0 1267.87950683067,50.0 C 1273.87950683067,50.0 1277.87950683067,43.0 1277.87950683067,35.0 C 1277.87950683067,27.0 1284.87950683067,20.0 1292.87950683067,20.0 C 1300.87950683067,20.0 1307.87950683067,16.0 1307.87950683067,10.0 C 1307.87950683067,5.0 1316.87950683067,0.0 1327.87950683067,0.0 C 1346.87950683067,0.0 1347.87950683067,7.0 1347.87950683067,100.0 C 1347.87950683067,160.0 1343.87950683067,200.0 1337.87950683067,200.0 C 1332.87950683067,200.0 1327.87950683067,193.0 1327.87950683067,185.0"/>
	<path d="M 1367.8795068306697,155.0 C 1367.8795068306697,118.0 1371.8795068306697,90.0 1377.8795068306697,90.0 C 1383.8795068306697,90.0 1387.8795068306697,70.0 1387.8795068306697,45.0 L 1387.8795068306697,0.0 L 1425.8795068306697,0.0 C 1451.8795068306697,0.0 1467.8795068306697,6.0 1477.8795068306697,20.0 C 1485.8795068306697,31.0 1497.8795068306697,40.0 1504.8795068306697,40.0 C 1513.8795068306697,40.0 1517.8795068306697,59.0 1517.8795068306697,105.0 C 1517.8795068306697,156.0 1514.8795068306697,170.0 1502.8795068306697,170.0 C 1491.8795068306697,170.0 1487.8795068306697,159.0 1487.8795068306697,134.0 C 1487.8795068306697,115.0 1481.8795068306697,92.0 1473.8795068306697,84.0 C 1456.8795068306697,68.0 1417.8795068306697,65.0 1417.8795068306697,80.0 C 1417.8795068306697,86.0 1410.8795068306697,90.0 1402.8795068306697,90.0 C 1390.8795068306697,90.0 1387.8795068306697,104.0 1387.8795068306697,155.0 C 1387.8795068306697,192.0 1383.8795068306697,220.0 1377.8795068306697,220.0 C 1371.8795068306697,220.0 1367.8795068306697,192.0 1367.8795068306697,155.0"/>
	<path d="M 1550.1405298899979,104.74712480946073 C 1533.1405298899979,85.74712480946073 1534.1405298899979,31.74712480946073 1551.1405298899979,13.747124809460729 C 1580.1405298899979,-14.252875190539271 1657.1405298899979,3.747124809460729 1657.1405298899979,38.74712480946073 C 1657.1405298899979,44.74712480946073 1664.1405298899979,49.74712480946073 1672.1405298899979,49.74712480946073 C 1681.1405298899979,49.74712480946073 1687.1405298899979,58.74712480946073 1687.1405298899979,74.74712480946073 C 1687.1405298899979,90.74712480946073 1681.1405298899979,99.74712480946073 1672.1405298899979,99.74712480946073 C 1664.1405298899979,99.74712480946073 1657.1405298899979,104.74712480946073 1657.1405298899979,109.74712480946073 C 1657.1405298899979,125.74712480946073 1564.1405298899979,120.74712480946073 1550.1405298899979,104.74712480946073"/>
	<path d="M 1707.1405298899979,100.0 C 1707.1405298899979,7.0 1708.1405298899979,0.0 1727.1405298899979,0.0 C 1738.1405298899979,0.0 1747.1405298899979,7.0 1747.1405298899979,15.0 C 1747.1405298899979,23.0 1754.1405298899979,30.0 1762.1405298899979,30.0 C 1771.1405298899979,30.0 1777.1405298899979,39.0 1777.1405298899979,55.0 C 1777.1405298899979,69.0 1782.1405298899979,80.0 1787.1405298899979,80.0 C 1793.1405298899979,80.0 1797.1405298899979,91.0 1797.1405298899979,105.0 C 1797.1405298899979,121.0 1803.1405298899979,130.0 1812.1405298899979,130.0 C 1821.1405298899979,130.0 1827.1405298899979,139.0 1827.1405298899979,155.0 C 1827.1405298899979,171.0 1821.1405298899979,180.0 1812.1405298899979,180.0 C 1804.1405298899979,180.0 1797.1405298899979,185.0 1797.1405298899979,190.0 C 1797.1405298899979,196.0 1777.1405298899979,200.0 1752.1405298899979,200.0 L 1707.1405298899979,200.0 L 1707.1405298899979,100.0"/>
	<path d="M 1867.140529889998,184.7722980541448 C 1867.140529889998,176.7722980541448 1863.140529889998,169.7722980541448 1857.140529889998,169.7722980541448 C 1852.140529889998,169.7722980541448 1847.140529889998,147.7722980541448 1847.140529889998,119.77229805414481 C 1847.140529889998,92.77229805414481 1852.140529889998,69.77229805414481 1857.140529889998,69.77229805414481 C 1863.140529889998,69.77229805414481 1867.140529889998,58.77229805414481 1867.140529889998,44.77229805414481 C 1867.140529889998,28.772298054144812 1873.140529889998,19.772298054144812 1882.140529889998,19.772298054144812 C 1890.140529889998,19.772298054144812 1897.140529889998,15.772298054144812 1897.140529889998,9.772298054144812 C 1897.140529889998,-5.227701945855188 1936.140529889998,-2.2277019458551877 1953.140529889998,13.772298054144812 C 1972.140529889998,33.77229805414481 1972.140529889998,135.7722980541448 1953.140529889998,155.7722980541448 C 1945.140529889998,163.7722980541448 1934.140529889998,169.7722980541448 1928.140529889998,169.7722980541448 C 1922.140529889998,169.7722980541448 1917.140529889998,176.7722980541448 1917.140529889998,184.7722980541448 C 1917.140529889998,193.7722980541448 1908.140529889998,199.7722980541448 1892.140529889998,199.7722980541448 C 1876.140529889998,199.7722980541448 1867.140529889998,193.7722980541448 1867.140529889998,184.7722980541448"/>
	<path d="M 1987.3905298899979,205.0 C 1987.3905298899979,186.0 1992.3905298899979,170.0 1997.3905298899979,170.0 C 2003.3905298899979,170.0 2007.3905298899979,165.0 2007.3905298899979,159.0 C 2007.3905298899979,145.0 2032.3905298899979,120.0 2046.3905298899979,120.0 C 2052.390529889998,120.0 2057.390529889998,115.0 2057.390529889998,109.0 C 2057.390529889998,95.0 2082.390529889998,70.0 2096.390529889998,70.0 C 2102.390529889998,70.0 2107.390529889998,59.0 2107.390529889998,45.0 C 2107.390529889998,29.0 2101.390529889998,20.0 2092.390529889998,20.0 C 2084.390529889998,20.0 2077.390529889998,16.0 2077.390529889998,10.0 C 2077.390529889998,5.0 2095.390529889998,0.0 2117.390529889998,0.0 L 2157.390529889998,0.0 L 2157.390529889998,60.0 C 2157.390529889998,107.0 2154.390529889998,120.0 2142.390529889998,120.0 C 2133.390529889998,120.0 2127.390529889998,129.0 2127.390529889998,141.0 C 2127.390529889998,163.0 2105.390529889998,190.0 2088.390529889998,190.0 C 2082.390529889998,190.0 2077.390529889998,197.0 2077.390529889998,205.0 C 2077.390529889998,215.0 2066.390529889998,220.0 2042.3905298899979,220.0 C 2023.3905298899979,220.0 2007.3905298899979,225.0 2007.3905298899979,230.0 C 2007.3905298899979,236.0 2003.3905298899979,240.0 1997.3905298899979,240.0 C 1992.3905298899979,240.0 1987.3905298899979,224.0 1987.3905298899979,205.0"/>
	<path d="M 2297.390529889998,185.0 C 2297.390529889998,175.0 2286.390529889998,170.0 2262.390529889998,170.0 C 2243.390529889998,170.0 2227.390529889998,166.0 2227.390529889998,160.0 C 2227.390529889998,155.0 2220.390529889998,150.0 2212.390529889998,150.0 C 2204.390529889998,150.0 2197.390529889998,143.0 2197.390529889998,135.0 C 2197.390529889998,127.0 2193.390529889998,120.0 2187.390529889998,120.0 C 2182.390529889998,120.0 2177.390529889998,109.0 2177.390529889998,95.0 C 2177.390529889998,81.0 2182.390529889998,70.0 2187.390529889998,70.0 C 2193.390529889998,70.0 2197.390529889998,59.0 2197.390529889998,45.0 C 2197.390529889998,29.0 2203.390529889998,20.0 2212.390529889998,20.0 C 2220.390529889998,20.0 2227.390529889998,16.0 2227.390529889998,10.0 C 2227.390529889998,5.0 2238.390529889998,0.0 2252.390529889998,0.0 C 2266.390529889998,0.0 2277.390529889998,5.0 2277.390529889998,10.0 C 2277.390529889998,16.0 2286.390529889998,20.0 2297.390529889998,20.0 C 2316.390529889998,20.0 2317.390529889998,27.0 2317.390529889998,110.0 C 2317.390529889998,163.0 2313.390529889998,200.0 2307.390529889998,200.0 C 2302.390529889998,200.0 2297.390529889998,193.0 2297.390529889998,185.0"/>
	<path d="M 2387.640529889998,184.77229805414527 C 2387.640529889998,176.77229805414527 2382.640529889998,169.77229805414527 2376.640529889998,169.77229805414527 C 2370.640529889998,169.77229805414527 2359.640529889998,163.77229805414527 2351.640529889998,155.77229805414527 C 2332.640529889998,135.77229805414527 2332.640529889998,33.77229805414527 2351.640529889998,13.772298054145267 C 2368.640529889998,-2.227701945854733 2407.640529889998,-5.227701945854733 2407.640529889998,9.772298054145267 C 2407.640529889998,15.772298054145267 2414.640529889998,19.772298054145267 2422.640529889998,19.772298054145267 C 2430.640529889998,19.772298054145267 2437.640529889998,26.772298054145267 2437.640529889998,34.77229805414527 C 2437.640529889998,42.77229805414527 2442.640529889998,49.77229805414527 2447.640529889998,49.77229805414527 C 2453.640529889998,49.77229805414527 2457.640529889998,60.77229805414527 2457.640529889998,74.77229805414527 C 2457.640529889998,90.77229805414527 2463.640529889998,99.77229805414527 2472.640529889998,99.77229805414527 C 2481.640529889998,99.77229805414527 2487.640529889998,108.77229805414527 2487.640529889998,124.77229805414527 C 2487.640529889998,138.77229805414527 2482.640529889998,149.77229805414527 2476.640529889998,149.77229805414527 C 2462.640529889998,149.77229805414527 2437.640529889998,174.77229805414527 2437.640529889998,188.77229805414527 C 2437.640529889998,194.77229805414527 2426.640529889998,199.77229805414527 2412.640529889998,199.77229805414527 C 2396.640529889998,199.77229805414527 2387.640529889998,193.77229805414527 2387.640529889998,184.77229805414527"/>
	<path d="M 2627.140529889998,188.77229805414527 C 2627.140529889998,174.77229805414527 2602.140529889998,149.77229805414527 2588.140529889998,149.77229805414527 C 2582.140529889998,149.77229805414527 2577.140529889998,142.77229805414527 2577.140529889998,134.77229805414527 C 2577.140529889998,125.77229805414527 2568.140529889998,119.77229805414527 2556.140529889998,119.77229805414527 C 2545.140529889998,119.77229805414527 2529.140529889998,113.77229805414527 2521.140529889998,105.77229805414527 C 2503.140529889998,86.77229805414527 2503.140529889998,32.77229805414527 2521.140529889998,13.772298054145267 C 2538.140529889998,-2.227701945854733 2577.140529889998,-5.227701945854733 2577.140529889998,9.772298054145267 C 2577.140529889998,15.772298054145267 2584.140529889998,19.772298054145267 2592.140529889998,19.772298054145267 C 2600.140529889998,19.772298054145267 2607.140529889998,24.772298054145267 2607.140529889998,30.772298054145267 C 2607.140529889998,47.77229805414527 2634.140529889998,69.77229805414527 2656.140529889998,69.77229805414527 C 2668.140529889998,69.77229805414527 2677.140529889998,75.77229805414527 2677.140529889998,84.77229805414527 C 2677.140529889998,92.77229805414527 2684.140529889998,99.77229805414527 2692.140529889998,99.77229805414527 C 2702.140529889998,99.77229805414527 2707.140529889998,110.77229805414527 2707.140529889998,134.77229805414527 C 2707.140529889998,158.77229805414527 2702.140529889998,169.77229805414527 2692.140529889998,169.77229805414527 C 2684.140529889998,169.77229805414527 2677.140529889998,176.77229805414527 2677.140529889998,184.77229805414527 C 2677.140529889998,193.77229805414527 2668.140529889998,199.77229805414527 2652.140529889998,199.77229805414527 C 2638.140529889998,199.77229805414527 2627.140529889998,194.77229805414527 2627.140529889998,188.77229805414527"/>
	<path d="M 2770.140529889998,204.7722980541448 C 2763.140529889998,196.7722980541448 2757.140529889998,185.7722980541448 2757.140529889998,179.7722980541448 C 2757.140529889998,174.7722980541448 2750.140529889998,169.7722980541448 2742.140529889998,169.7722980541448 C 2733.140529889998,169.7722980541448 2727.140529889998,160.7722980541448 2727.140529889998,144.7722980541448 C 2727.140529889998,128.7722980541448 2733.140529889998,119.77229805414481 2742.140529889998,119.77229805414481 C 2753.140529889998,119.77229805414481 2757.140529889998,107.77229805414481 2757.140529889998,73.77229805414481 C 2757.140529889998,47.77229805414481 2763.140529889998,22.772298054144812 2771.140529889998,13.772298054144812 C 2788.140529889998,-2.2277019458551877 2827.140529889998,-5.227701945855188 2827.140529889998,9.772298054144812 C 2827.140529889998,15.772298054144812 2834.140529889998,19.772298054144812 2842.140529889998,19.772298054144812 C 2850.140529889998,19.772298054144812 2857.140529889998,26.772298054144812 2857.140529889998,34.77229805414481 C 2857.140529889998,42.77229805414481 2862.140529889998,49.77229805414481 2867.140529889998,49.77229805414481 C 2883.140529889998,49.77229805414481 2879.140529889998,188.7722980541448 2863.140529889998,205.7722980541448 C 2844.140529889998,223.7722980541448 2786.140529889998,223.7722980541448 2770.140529889998,204.7722980541448"/>
	<path d="M 2927.326121160999,280.0 C 2927.326121160999,275.0 2920.326121160999,270.0 2912.326121160999,270.0 C 2901.326121160999,270.0 2897.326121160999,258.0 2897.326121160999,220.0 C 2897.326121160999,182.0 2901.326121160999,170.0 2912.326121160999,170.0 C 2920.326121160999,170.0 2927.326121160999,166.0 2927.326121160999,160.0 C 2927.326121160999,155.0 2938.326121160999,150.0 2952.326121160999,150.0 C 2966.326121160999,150.0 2977.326121160999,145.0 2977.326121160999,139.0 C 2977.326121160999,125.0 3002.326121160999,100.0 3016.326121160999,100.0 C 3022.326121160999,100.0 3027.326121160999,95.0 3027.326121160999,89.0 C 3027.326121160999,75.0 3052.326121160999,50.0 3066.326121160999,50.0 C 3072.326121160999,50.0 3077.326121160999,43.0 3077.326121160999,35.0 C 3077.326121160999,27.0 3082.326121160999,20.0 3087.326121160999,20.0 C 3093.326121160999,20.0 3097.326121160999,27.0 3097.326121160999,35.0 C 3097.326121160999,43.0 3093.326121160999,50.0 3087.326121160999,50.0 C 3082.326121160999,50.0 3077.326121160999,61.0 3077.326121160999,75.0 C 3077.326121160999,89.0 3072.326121160999,100.0 3066.326121160999,100.0 C 3060.326121160999,100.0 3049.326121160999,106.0 3041.326121160999,114.0 C 3033.326121160999,122.0 3027.326121160999,133.0 3027.326121160999,139.0 C 3027.326121160999,145.0 3022.326121160999,150.0 3016.326121160999,150.0 C 2999.326121160999,150.0 2977.326121160999,177.0 2977.326121160999,199.0 C 2977.326121160999,211.0 2982.326121160999,220.0 2987.326121160999,220.0 C 2993.326121160999,220.0 2997.326121160999,227.0 2997.326121160999,235.0 C 2997.326121160999,244.0 3006.326121160999,250.0 3022.326121160999,250.0 C 3038.326121160999,250.0 3047.326121160999,244.0 3047.326121160999,235.0 C 3047.326121160999,227.0 3052.326121160999,220.0 3058.326121160999,220.0 C 3064.326121160999,220.0 3075.326121160999,214.0 3083.326121160999,206.0 C 3091.326121160999,198.0 3097.326121160999,187.0 3097.326121160999,181.0 C 3097.326121160999,175.0 3102.326121160999,170.0 3108.326121160999,170.0 C 3114.326121160999,170.0 3125.326121160999,164.0 3133.326121160999,156.0 C 3141.326121160999,148.0 3147.326121160999,137.0 3147.326121160999,131.0 C 3147.326121160999,125.0 3154.326121160999,120.0 3162.326121160999,120.0 C 3171.326121160999,120.0 3177.326121160999,111.0 3177.326121160999,95.0 C 3177.326121160999,81.0 3182.326121160999,70.0 3187.326121160999,70.0 C 3193.326121160999,70.0 3197.326121160999,54.0 3197.326121160999,35.0 C 3197.326121160999,11.0 3202.326121160999,0.0 3212.326121160999,0.0 C 3222.326121160999,0.0 3227.326121160999,11.0 3227.326121160999,35.0 C 3227.326121160999,59.0 3222.326121160999,70.0 3212.326121160999,70.0 C 3203.326121160999,70.0 3197.326121160999,79.0 3197.326121160999,95.0 C 3197.326121160999,109.0 3193.326121160999,120.0 3187.326121160999,120.0 C 3182.326121160999,120.0 3177.326121160999,127.0 3177.326121160999,135.0 C 3177.326121160999,143.0 3172.326121160999,150.0 3166.326121160999,150.0 C 3160.326121160999,150.0 3149.326121160999,156.0 3141.326121160999,164.0 C 3133.326121160999,172.0 3127.326121160999,183.0 3127.326121160999,189.0 C 3127.326121160999,195.0 3122.326121160999,200.0 3116.326121160999,200.0 C 3110.326121160999,200.0 3099.326121160999,206.0 3091.326121160999,214.0 C 3083.326121160999,222.0 3077.326121160999,233.0 3077.326121160999,239.0 C 3077.326121160999,245.0 3070.326121160999,250.0 3062.326121160999,250.0 C 3054.326121160999,250.0 3047.326121160999,255.0 3047.326121160999,260.0 C 3047.326121160999,266.0 3036.326121160999,270.0 3022.326121160999,270.0 C 3008.326121160999,270.0 2997.326121160999,275.0 2997.326121160999,280.0 C 2997.326121160999,286.0 2981.326121160999,290.0 2962.326121160999,290.0 C 2943.326121160999,290.0 2927.326121160999,286.0 2927.326121160999,280.0"/>
	<path d="M 3297.326121160999,155.0 C 3297.326121160999,147.0 3293.326121160999,140.0 3287.326121160999,140.0 C 3281.326121160999,140.0 3277.326121160999,113.0 3277.326121160999,80.0 C 3277.326121160999,33.0 3274.326121160999,20.0 3262.326121160999,20.0 C 3254.326121160999,20.0 3247.326121160999,16.0 3247.326121160999,10.0 C 3247.326121160999,5.0 3258.326121160999,0.0 3272.326121160999,0.0 C 3290.326121160999,0.0 3297.326121160999,5.0 3297.326121160999,20.0 C 3297.326121160999,31.0 3304.326121160999,40.0 3312.326121160999,40.0 C 3320.326121160999,40.0 3327.326121160999,45.0 3327.326121160999,51.0 C 3327.326121160999,68.0 3354.326121160999,90.0 3376.326121160999,90.0 C 3388.326121160999,90.0 3397.326121160999,86.0 3397.326121160999,80.0 C 3397.326121160999,75.0 3404.326121160999,70.0 3412.326121160999,70.0 C 3422.326121160999,70.0 3427.326121160999,59.0 3427.326121160999,35.0 C 3427.326121160999,4.0 3430.326121160999,0.0 3452.326121160999,0.0 C 3474.326121160999,0.0 3477.326121160999,4.0 3477.326121160999,35.0 C 3477.326121160999,54.0 3482.326121160999,70.0 3487.326121160999,70.0 C 3493.326121160999,70.0 3497.326121160999,86.0 3497.326121160999,105.0 C 3497.326121160999,124.0 3493.326121160999,140.0 3487.326121160999,140.0 C 3482.326121160999,140.0 3477.326121160999,147.0 3477.326121160999,155.0 C 3477.326121160999,166.0 3466.326121160999,170.0 3437.326121160999,170.0 C 3408.326121160999,170.0 3397.326121160999,166.0 3397.326121160999,155.0 C 3397.326121160999,146.0 3388.326121160999,140.0 3372.326121160999,140.0 C 3356.326121160999,140.0 3347.326121160999,146.0 3347.326121160999,155.0 C 3347.326121160999,164.0 3338.326121160999,170.0 3322.326121160999,170.0 C 3306.326121160999,170.0 3297.326121160999,164.0 3297.326121160999,155.0"/>
	<path d="M 3537.326121160999,185.0 C 3537.326121160999,177.0 3533.326121160999,170.0 3527.326121160999,170.0 C 3522.326121160999,170.0 3517.326121160999,161.0 3517.326121160999,149.0 C 3517.326121160999,127.0 3539.326121160999,100.0 3556.326121160999,100.0 C 3562.326121160999,100.0 3567.326121160999,89.0 3567.326121160999,75.0 C 3567.326121160999,61.0 3572.326121160999,50.0 3577.326121160999,50.0 C 3583.326121160999,50.0 3587.326121160999,43.0 3587.326121160999,35.0 C 3587.326121160999,26.0 3596.326121160999,20.0 3612.326121160999,20.0 C 3626.326121160999,20.0 3637.326121160999,16.0 3637.326121160999,10.0 C 3637.326121160999,5.0 3648.326121160999,0.0 3662.326121160999,0.0 C 3676.326121160999,0.0 3687.326121160999,5.0 3687.326121160999,10.0 C 3687.326121160999,16.0 3694.326121160999,20.0 3702.326121160999,20.0 C 3711.326121160999,20.0 3717.326121160999,29.0 3717.326121160999,45.0 C 3717.326121160999,61.0 3711.326121160999,70.0 3702.326121160999,70.0 C 3691.326121160999,70.0 3687.326121160999,81.0 3687.326121160999,106.0 C 3687.326121160999,146.0 3669.326121160999,170.0 3638.326121160999,170.0 C 3626.326121160999,170.0 3617.326121160999,176.0 3617.326121160999,185.0 C 3617.326121160999,196.0 3606.326121160999,200.0 3577.326121160999,200.0 C 3548.326121160999,200.0 3537.326121160999,196.0 3537.326121160999,185.0"/>
	<path d="M 3827.326121160999,169.0 C 3827.326121160999,149.0 3798.326121160999,130.0 3768.326121160999,130.0 C 3738.326121160999,130.0 3737.326121160999,129.0 3737.326121160999,80.0 L 3737.326121160999,30.0 L 3772.326121160999,30.0 C 3796.326121160999,30.0 3807.326121160999,25.0 3807.326121160999,15.0 C 3807.326121160999,4.0 3819.326121160999,0.0 3857.326121160999,0.0 C 3895.326121160999,0.0 3907.326121160999,4.0 3907.326121160999,15.0 C 3907.326121160999,23.0 3912.326121160999,30.0 3917.326121160999,30.0 C 3923.326121160999,30.0 3927.326121160999,57.0 3927.326121160999,90.0 C 3927.326121160999,123.0 3923.326121160999,150.0 3917.326121160999,150.0 C 3912.326121160999,150.0 3907.326121160999,157.0 3907.326121160999,165.0 C 3907.326121160999,176.0 3896.326121160999,180.0 3867.326121160999,180.0 C 3845.326121160999,180.0 3827.326121160999,175.0 3827.326121160999,169.0"/>
	<path d="M 3947.326121160999,185.0 C 3947.326121160999,166.0 3952.326121160999,150.0 3958.326121160999,150.0 C 3964.326121160999,150.0 3975.326121160999,144.0 3983.326121160999,136.0 C 3991.326121160999,128.0 3997.326121160999,117.0 3997.326121160999,111.0 C 3997.326121160999,105.0 4004.326121160999,100.0 4012.326121160999,100.0 C 4022.326121160999,100.0 4027.326121160999,89.0 4027.326121160999,65.0 C 4027.326121160999,46.0 4032.326121160999,30.0 4037.326121160999,30.0 C 4043.326121160999,30.0 4047.326121160999,23.0 4047.326121160999,15.0 C 4047.326121160999,7.0 4054.326121160999,0.0 4062.326121160999,0.0 C 4070.326121160999,0.0 4077.326121160999,7.0 4077.326121160999,15.0 C 4077.326121160999,23.0 4082.326121160999,30.0 4087.326121160999,30.0 C 4093.326121160999,30.0 4097.326121160999,41.0 4097.326121160999,55.0 C 4097.326121160999,71.0 4103.326121160999,80.0 4112.326121160999,80.0 C 4121.326121160999,80.0 4127.326121160999,89.0 4127.326121160999,105.0 C 4127.326121160999,119.0 4132.326121160999,130.0 4137.326121160999,130.0 C 4143.326121160999,130.0 4147.326121160999,141.0 4147.326121160999,155.0 C 4147.326121160999,169.0 4143.326121160999,180.0 4137.326121160999,180.0 C 4132.326121160999,180.0 4127.326121160999,189.0 4127.326121160999,200.0 C 4127.326121160999,219.0 4120.326121160999,220.0 4037.326121160999,220.0 L 3947.326121160999,220.0 L 3947.326121160999,185.0"/>
	<path d="M 4267.326121160999,119.0 C 4267.326121160999,102.0 4240.326121160999,80.0 4218.326121160999,80.0 C 4206.326121160999,80.0 4197.326121160999,74.0 4197.326121160999,65.0 C 4197.326121160999,57.0 4190.326121160999,50.0 4182.326121160999,50.0 C 4173.326121160999,50.0 4167.326121160999,41.0 4167.326121160999,25.0 L 4167.326121160999,0.0 L 4302.326121160999,0.0 C 4415.326121160999,0.0 4437.326121160999,2.0 4437.326121160999,15.0 C 4437.326121160999,23.0 4444.326121160999,30.0 4452.326121160999,30.0 C 4461.326121160999,30.0 4467.326121160999,39.0 4467.326121160999,55.0 C 4467.326121160999,71.0 4461.326121160999,80.0 4452.326121160999,80.0 C 4444.326121160999,80.0 4437.326121160999,85.0 4437.326121160999,90.0 C 4437.326121160999,96.0 4410.326121160999,100.0 4377.326121160999,100.0 C 4330.326121160999,100.0 4317.326121160999,103.0 4317.326121160999,115.0 C 4317.326121160999,124.0 4308.326121160999,130.0 4292.326121160999,130.0 C 4278.326121160999,130.0 4267.326121160999,125.0 4267.326121160999,119.0"/>
	<path d="M 4499.781701472587,185.0 C 4484.781701472587,168.0 4482.781701472587,80.0 4496.781701472587,80.0 C 4502.781701472587,80.0 4506.781701472587,73.0 4506.781701472587,65.0 C 4506.781701472587,56.0 4515.781701472587,50.0 4531.781701472587,50.0 C 4545.781701472587,50.0 4556.781701472587,46.0 4556.781701472587,40.0 C 4556.781701472587,35.0 4563.781701472587,30.0 4571.781701472587,30.0 C 4579.781701472587,30.0 4586.781701472587,23.0 4586.781701472587,15.0 C 4586.781701472587,7.0 4595.781701472587,0.0 4606.781701472587,0.0 C 4617.781701472587,0.0 4626.781701472587,7.0 4626.781701472587,15.0 C 4626.781701472587,26.0 4637.781701472587,30.0 4662.781701472587,30.0 C 4681.781701472587,30.0 4704.781701472587,36.0 4712.781701472587,44.0 C 4728.781701472587,61.0 4731.781701472587,100.0 4716.781701472587,100.0 C 4711.781701472587,100.0 4706.781701472587,107.0 4706.781701472587,115.0 C 4706.781701472587,123.0 4699.781701472587,130.0 4691.781701472587,130.0 C 4683.781701472587,130.0 4676.781701472587,135.0 4676.781701472587,140.0 C 4676.781701472587,146.0 4665.781701472587,150.0 4651.781701472587,150.0 C 4637.781701472587,150.0 4626.781701472587,155.0 4626.781701472587,161.0 C 4626.781701472587,197.0 4526.781701472587,216.0 4499.781701472587,185.0"/>
	<path d="M 4839.553999526733,155.92487515483617 C 4832.553999526733,147.92487515483617 4826.553999526733,136.92487515483617 4826.553999526733,130.92487515483617 C 4826.553999526733,125.92487515483617 4821.553999526733,120.92487515483617 4815.553999526733,120.92487515483617 C 4801.553999526733,120.92487515483617 4776.553999526733,95.92487515483617 4776.553999526733,81.92487515483617 C 4776.553999526733,75.92487515483617 4769.553999526733,70.92487515483617 4761.553999526733,70.92487515483617 C 4752.553999526733,70.92487515483617 4746.553999526733,61.92487515483617 4746.553999526733,45.92487515483617 C 4746.553999526733,29.924875154836172 4752.553999526733,20.924875154836172 4761.553999526733,20.924875154836172 C 4769.553999526733,20.924875154836172 4776.553999526733,16.924875154836172 4776.553999526733,10.924875154836172 C 4776.553999526733,-6.075124845163828 4965.553999526733,-2.0751248451638276 4982.553999526733,14.924875154836172 C 4998.553999526733,31.924875154836172 5001.553999526733,70.92487515483617 4986.553999526733,70.92487515483617 C 4981.553999526733,70.92487515483617 4976.553999526733,88.92487515483617 4976.553999526733,110.92487515483617 C 4976.553999526733,139.92487515483617 4972.553999526733,150.92487515483617 4961.553999526733,150.92487515483617 C 4953.553999526733,150.92487515483617 4946.553999526733,155.92487515483617 4946.553999526733,160.92487515483617 C 4946.553999526733,176.92487515483617 4853.553999526733,171.92487515483617 4839.553999526733,155.92487515483617"/>
	<path d="M 5109.3262975808775,205.0 C 5102.3262975808775,197.0 5096.3262975808775,186.0 5096.3262975808775,180.0 C 5096.3262975808775,175.0 5091.3262975808775,170.0 5085.3262975808775,170.0 C 5071.3262975808775,170.0 5046.3262975808775,145.0 5046.3262975808775,131.0 C 5046.3262975808775,125.0 5039.3262975808775,120.0 5031.3262975808775,120.0 C 5020.3262975808775,120.0 5016.3262975808775,108.0 5016.3262975808775,70.0 C 5016.3262975808775,32.0 5020.3262975808775,20.0 5031.3262975808775,20.0 C 5039.3262975808775,20.0 5046.3262975808775,16.0 5046.3262975808775,10.0 C 5046.3262975808775,5.0 5057.3262975808775,0.0 5071.3262975808775,0.0 C 5085.3262975808775,0.0 5096.3262975808775,5.0 5096.3262975808775,10.0 C 5096.3262975808775,16.0 5123.3262975808775,20.0 5156.3262975808775,20.0 C 5203.3262975808775,20.0 5216.3262975808775,23.0 5216.3262975808775,35.0 C 5216.3262975808775,43.0 5221.3262975808775,50.0 5226.3262975808775,50.0 C 5232.3262975808775,50.0 5236.3262975808775,71.0 5236.3262975808775,96.0 C 5236.3262975808775,140.0 5220.3262975808775,170.0 5197.3262975808775,170.0 C 5191.3262975808775,170.0 5186.3262975808775,175.0 5186.3262975808775,181.0 C 5186.3262975808775,214.0 5132.3262975808775,231.0 5109.3262975808775,205.0"/>
	<path d="M 5276.3262975808775,255.0 C 5276.3262975808775,247.0 5272.3262975808775,240.0 5266.3262975808775,240.0 C 5261.3262975808775,240.0 5256.3262975808775,229.0 5256.3262975808775,215.0 C 5256.3262975808775,201.0 5261.3262975808775,190.0 5266.3262975808775,190.0 C 5272.3262975808775,190.0 5276.3262975808775,160.0 5276.3262975808775,120.0 C 5276.3262975808775,64.0 5279.3262975808775,50.0 5291.3262975808775,50.0 C 5299.3262975808775,50.0 5306.3262975808775,45.0 5306.3262975808775,39.0 C 5306.3262975808775,22.0 5333.3262975808775,0.0 5355.3262975808775,0.0 C 5367.3262975808775,0.0 5376.3262975808775,5.0 5376.3262975808775,10.0 C 5376.3262975808775,16.0 5383.3262975808775,20.0 5391.3262975808775,20.0 C 5403.3262975808775,20.0 5406.3262975808775,33.0 5406.3262975808775,80.0 C 5406.3262975808775,113.0 5410.3262975808775,140.0 5416.3262975808775,140.0 C 5422.3262975808775,140.0 5426.3262975808775,147.0 5426.3262975808775,155.0 C 5426.3262975808775,163.0 5433.3262975808775,170.0 5441.3262975808775,170.0 C 5450.3262975808775,170.0 5456.3262975808775,179.0 5456.3262975808775,195.0 C 5456.3262975808775,211.0 5450.3262975808775,220.0 5441.3262975808775,220.0 C 5433.3262975808775,220.0 5426.3262975808775,225.0 5426.3262975808775,230.0 C 5426.3262975808775,236.0 5410.3262975808775,240.0 5391.3262975808775,240.0 C 5367.3262975808775,240.0 5356.3262975808775,245.0 5356.3262975808775,255.0 C 5356.3262975808775,266.0 5345.3262975808775,270.0 5316.3262975808775,270.0 C 5287.3262975808775,270.0 5276.3262975808775,266.0 5276.3262975808775,255.0"/>
	<path d="M 5506.3262975808775,265.0 C 5506.3262975808775,257.0 5499.3262975808775,250.0 5491.3262975808775,250.0 C 5482.3262975808775,250.0 5476.3262975808775,241.0 5476.3262975808775,225.0 C 5476.3262975808775,211.0 5481.3262975808775,200.0 5487.3262975808775,200.0 C 5510.3262975808775,200.0 5526.3262975808775,170.0 5526.3262975808775,126.0 C 5526.3262975808775,92.0 5530.3262975808775,80.0 5541.3262975808775,80.0 C 5549.3262975808775,80.0 5556.3262975808775,75.0 5556.3262975808775,69.0 C 5556.3262975808775,55.0 5581.3262975808775,30.0 5595.3262975808775,30.0 C 5601.3262975808775,30.0 5606.3262975808775,23.0 5606.3262975808775,15.0 C 5606.3262975808775,6.0 5615.3262975808775,0.0 5631.3262975808775,0.0 C 5647.3262975808775,0.0 5656.3262975808775,6.0 5656.3262975808775,15.0 C 5656.3262975808775,23.0 5661.3262975808775,30.0 5666.3262975808775,30.0 C 5672.3262975808775,30.0 5676.3262975808775,53.0 5676.3262975808775,80.0 C 5676.3262975808775,108.0 5672.3262975808775,130.0 5666.3262975808775,130.0 C 5660.3262975808775,130.0 5656.3262975808775,157.0 5656.3262975808775,190.0 C 5656.3262975808775,237.0 5653.3262975808775,250.0 5641.3262975808775,250.0 C 5633.3262975808775,250.0 5626.3262975808775,257.0 5626.3262975808775,265.0 C 5626.3262975808775,277.0 5613.3262975808775,280.0 5566.3262975808775,280.0 C 5519.3262975808775,280.0 5506.3262975808775,277.0 5506.3262975808775,265.0"/>
	<path d="M 5776.3262975808775,235.0 C 5776.3262975808775,227.0 5769.3262975808775,220.0 5761.3262975808775,220.0 C 5751.3262975808775,220.0 5746.3262975808775,210.0 5746.3262975808775,189.0 C 5746.3262975808775,159.0 5727.3262975808775,130.0 5707.3262975808775,130.0 C 5701.3262975808775,130.0 5696.3262975808775,109.0 5696.3262975808775,80.0 C 5696.3262975808775,42.0 5700.3262975808775,30.0 5711.3262975808775,30.0 C 5719.3262975808775,30.0 5726.3262975808775,23.0 5726.3262975808775,15.0 C 5726.3262975808775,6.0 5735.3262975808775,0.0 5751.3262975808775,0.0 C 5765.3262975808775,0.0 5776.3262975808775,5.0 5776.3262975808775,11.0 C 5776.3262975808775,25.0 5801.3262975808775,50.0 5815.3262975808775,50.0 C 5821.3262975808775,50.0 5826.3262975808775,57.0 5826.3262975808775,65.0 C 5826.3262975808775,74.0 5835.3262975808775,80.0 5851.3262975808775,80.0 C 5865.3262975808775,80.0 5876.3262975808775,75.0 5876.3262975808775,69.0 C 5876.3262975808775,55.0 5901.3262975808775,30.0 5915.3262975808775,30.0 C 5921.3262975808775,30.0 5926.3262975808775,23.0 5926.3262975808775,15.0 C 5926.3262975808775,6.0 5935.3262975808775,0.0 5951.3262975808775,0.0 C 5967.3262975808775,0.0 5976.3262975808775,6.0 5976.3262975808775,15.0 C 5976.3262975808775,23.0 5981.3262975808775,30.0 5986.3262975808775,30.0 C 5992.3262975808775,30.0 5996.3262975808775,46.0 5996.3262975808775,65.0 C 5996.3262975808775,84.0 5992.3262975808775,100.0 5986.3262975808775,100.0 C 5981.3262975808775,100.0 5976.3262975808775,107.0 5976.3262975808775,115.0 C 5976.3262975808775,123.0 5969.3262975808775,130.0 5961.3262975808775,130.0 C 5953.3262975808775,130.0 5946.3262975808775,139.0 5946.3262975808775,150.0 C 5946.3262975808775,161.0 5942.3262975808775,170.0 5936.3262975808775,170.0 C 5931.3262975808775,170.0 5926.3262975808775,181.0 5926.3262975808775,195.0 C 5926.3262975808775,211.0 5920.3262975808775,220.0 5911.3262975808775,220.0 C 5903.3262975808775,220.0 5896.3262975808775,227.0 5896.3262975808775,235.0 C 5896.3262975808775,247.0 5883.3262975808775,250.0 5836.3262975808775,250.0 C 5789.3262975808775,250.0 5776.3262975808775,247.0 5776.3262975808775,235.0"/>
	<path d="M 6016.3262975808775,300.0 C 6016.3262975808775,289.0 6021.3262975808775,280.0 6026.3262975808775,280.0 C 6032.3262975808775,280.0 6036.3262975808775,273.0 6036.3262975808775,265.0 C 6036.3262975808775,257.0 6041.3262975808775,250.0 6047.3262975808775,250.0 C 6070.3262975808775,250.0 6086.3262975808775,220.0 6086.3262975808775,176.0 C 6086.3262975808775,151.0 6082.3262975808775,130.0 6076.3262975808775,130.0 C 6071.3262975808775,130.0 6066.3262975808775,108.0 6066.3262975808775,80.0 C 6066.3262975808775,53.0 6071.3262975808775,30.0 6076.3262975808775,30.0 C 6082.3262975808775,30.0 6086.3262975808775,23.0 6086.3262975808775,15.0 C 6086.3262975808775,4.0 6097.3262975808775,0.0 6126.3262975808775,0.0 C 6155.3262975808775,0.0 6166.3262975808775,4.0 6166.3262975808775,15.0 C 6166.3262975808775,23.0 6171.3262975808775,30.0 6176.3262975808775,30.0 C 6182.3262975808775,30.0 6186.3262975808775,46.0 6186.3262975808775,65.0 C 6186.3262975808775,84.0 6182.3262975808775,100.0 6176.3262975808775,100.0 C 6171.3262975808775,100.0 6166.3262975808775,111.0 6166.3262975808775,125.0 C 6166.3262975808775,139.0 6171.3262975808775,150.0 6176.3262975808775,150.0 C 6182.3262975808775,150.0 6186.3262975808775,157.0 6186.3262975808775,165.0 C 6186.3262975808775,176.0 6197.3262975808775,180.0 6222.3262975808775,180.0 C 6272.3262975808775,180.0 6286.3262975808775,198.0 6286.3262975808775,264.0 L 6286.3262975808775,320.0 L 6151.3262975808775,320.0 C 6023.3262975808775,320.0 6016.3262975808775,319.0 6016.3262975808775,300.0"/>
	<path d="M 6406.511888851877,255.0 C 6406.511888851877,246.0 6397.511888851877,240.0 6381.511888851877,240.0 C 6367.511888851877,240.0 6356.511888851877,236.0 6356.511888851877,230.0 C 6356.511888851877,225.0 6349.511888851877,220.0 6341.511888851877,220.0 C 6333.511888851877,220.0 6326.511888851877,213.0 6326.511888851877,205.0 C 6326.511888851877,197.0 6322.511888851877,190.0 6316.511888851877,190.0 C 6300.511888851877,190.0 6304.511888851877,101.0 6320.511888851877,84.0 C 6337.511888851877,68.0 6426.511888851877,64.0 6426.511888851877,80.0 C 6426.511888851877,86.0 6437.511888851877,90.0 6451.511888851877,90.0 C 6465.511888851877,90.0 6476.511888851877,86.0 6476.511888851877,80.0 C 6476.511888851877,75.0 6483.511888851877,70.0 6491.511888851877,70.0 C 6499.511888851877,70.0 6506.511888851877,65.0 6506.511888851877,59.0 C 6506.511888851877,45.0 6531.511888851877,20.0 6545.511888851877,20.0 C 6551.511888851877,20.0 6556.511888851877,16.0 6556.511888851877,10.0 C 6556.511888851877,5.0 6572.511888851877,0.0 6591.511888851877,0.0 L 6626.511888851877,0.0 L 6626.511888851877,70.0 C 6626.511888851877,110.0 6622.511888851877,140.0 6616.511888851877,140.0 C 6611.511888851877,140.0 6606.511888851877,147.0 6606.511888851877,155.0 C 6606.511888851877,164.0 6597.511888851877,170.0 6581.511888851877,170.0 C 6567.511888851877,170.0 6556.511888851877,175.0 6556.511888851877,180.0 C 6556.511888851877,186.0 6549.511888851877,190.0 6541.511888851877,190.0 C 6533.511888851877,190.0 6526.511888851877,195.0 6526.511888851877,201.0 C 6526.511888851877,215.0 6501.511888851877,240.0 6487.511888851877,240.0 C 6481.511888851877,240.0 6476.511888851877,247.0 6476.511888851877,255.0 C 6476.511888851877,265.0 6465.511888851877,270.0 6441.511888851877,270.0 C 6417.511888851877,270.0 6406.511888851877,265.0 6406.511888851877,255.0"/>
	<path d="M 6746.511888851877,335.0 C 6746.511888851877,327.0 6741.511888851877,320.0 6735.511888851877,320.0 C 6715.511888851877,320.0 6696.511888851877,291.0 6696.511888851877,261.0 C 6696.511888851877,240.0 6691.511888851877,230.0 6681.511888851877,230.0 C 6673.511888851877,230.0 6666.511888851877,223.0 6666.511888851877,215.0 C 6666.511888851877,207.0 6662.511888851877,200.0 6656.511888851877,200.0 C 6651.511888851877,200.0 6646.511888851877,189.0 6646.511888851877,175.0 C 6646.511888851877,161.0 6651.511888851877,150.0 6656.511888851877,150.0 C 6662.511888851877,150.0 6666.511888851877,139.0 6666.511888851877,125.0 C 6666.511888851877,111.0 6671.511888851877,100.0 6677.511888851877,100.0 C 6683.511888851877,100.0 6694.511888851877,94.0 6702.511888851877,86.0 C 6710.511888851877,78.0 6716.511888851877,67.0 6716.511888851877,61.0 C 6716.511888851877,55.0 6721.511888851877,50.0 6727.511888851877,50.0 C 6733.511888851877,50.0 6744.511888851877,44.0 6752.511888851877,36.0 C 6760.511888851877,28.0 6766.511888851877,17.0 6766.511888851877,11.0 C 6766.511888851877,5.0 6784.511888851877,0.0 6806.511888851877,0.0 C 6835.511888851877,0.0 6846.511888851877,4.0 6846.511888851877,15.0 C 6846.511888851877,23.0 6851.511888851877,30.0 6856.511888851877,30.0 C 6871.511888851877,30.0 6868.511888851877,69.0 6852.511888851877,86.0 C 6844.511888851877,94.0 6828.511888851877,100.0 6817.511888851877,100.0 C 6805.511888851877,100.0 6796.511888851877,106.0 6796.511888851877,115.0 C 6796.511888851877,123.0 6789.511888851877,130.0 6781.511888851877,130.0 C 6772.511888851877,130.0 6766.511888851877,139.0 6766.511888851877,155.0 C 6766.511888851877,171.0 6772.511888851877,180.0 6781.511888851877,180.0 C 6789.511888851877,180.0 6796.511888851877,185.0 6796.511888851877,190.0 C 6796.511888851877,196.0 6819.511888851877,200.0 6846.511888851877,200.0 C 6884.511888851877,200.0 6896.511888851877,204.0 6896.511888851877,215.0 C 6896.511888851877,223.0 6901.511888851877,230.0 6906.511888851877,230.0 C 6912.511888851877,230.0 6916.511888851877,239.0 6916.511888851877,250.0 C 6916.511888851877,261.0 6912.511888851877,270.0 6906.511888851877,270.0 C 6901.511888851877,270.0 6896.511888851877,281.0 6896.511888851877,295.0 C 6896.511888851877,311.0 6890.511888851877,320.0 6881.511888851877,320.0 C 6873.511888851877,320.0 6866.511888851877,327.0 6866.511888851877,335.0 C 6866.511888851877,347.0 6853.511888851877,350.0 6806.511888851877,350.0 C 6759.511888851877,350.0 6746.511888851877,347.0 6746.511888851877,335.0"/>
	<path d="M 6936.539382316744,312.0 C 6936.539382316744,308.0 6945.539382316744,298.0 6956.539382316744,290.0 C 6967.539382316744,282.0 6976.539382316744,270.0 6976.539382316744,263.0 C 6976.539382316744,256.0 6983.539382316744,250.0 6991.539382316744,250.0 C 7002.539382316744,250.0 7006.539382316744,238.0 7006.539382316744,200.0 C 7006.539382316744,162.0 7002.539382316744,150.0 6991.539382316744,150.0 C 6982.539382316744,150.0 6976.539382316744,141.0 6976.539382316744,127.0 C 6976.539382316744,115.0 6967.539382316744,98.0 6956.539382316744,90.0 C 6936.539382316744,75.0 6928.539382316744,30.0 6946.539382316744,30.0 C 6952.539382316744,30.0 6956.539382316744,23.0 6956.539382316744,15.0 C 6956.539382316744,6.0 6965.539382316744,0.0 6981.539382316744,0.0 C 6997.539382316744,0.0 7006.539382316744,6.0 7006.539382316744,15.0 C 7006.539382316744,23.0 7011.539382316744,30.0 7016.539382316744,30.0 C 7022.539382316744,30.0 7026.539382316744,53.0 7026.539382316744,80.0 C 7026.539382316744,118.0 7030.539382316744,130.0 7041.539382316744,130.0 C 7049.539382316744,130.0 7056.539382316744,135.0 7056.539382316744,140.0 C 7056.539382316744,146.0 7065.539382316744,150.0 7077.539382316744,150.0 C 7099.539382316744,150.0 7126.539382316744,128.0 7126.539382316744,111.0 C 7126.539382316744,105.0 7137.539382316744,100.0 7151.539382316744,100.0 C 7167.539382316744,100.0 7176.539382316744,106.0 7176.539382316744,115.0 C 7176.539382316744,123.0 7183.539382316744,130.0 7191.539382316744,130.0 C 7200.539382316744,130.0 7206.539382316744,139.0 7206.539382316744,151.0 C 7206.539382316744,173.0 7228.539382316744,200.0 7245.539382316744,200.0 C 7251.539382316744,200.0 7256.539382316744,218.0 7256.539382316744,240.0 C 7256.539382316744,266.0 7251.539382316744,280.0 7243.539382316744,280.0 C 7236.539382316744,280.0 7224.539382316744,289.0 7216.539382316744,300.0 C 7203.539382316744,318.0 7190.539382316744,320.0 7069.539382316744,320.0 C 6996.539382316744,320.0 6936.539382316744,316.0 6936.539382316744,312.0"/>
	<path d="M 7526.724973587745,285.0 C 7526.724973587745,277.0 7519.724973587745,270.0 7511.724973587745,270.0 C 7503.724973587745,270.0 7496.724973587745,266.0 7496.724973587745,260.0 C 7496.724973587745,254.0 7469.724973587745,250.0 7436.724973587745,250.0 C 7389.724973587745,250.0 7376.724973587745,247.0 7376.724973587745,235.0 C 7376.724973587745,227.0 7369.724973587745,220.0 7361.724973587745,220.0 C 7352.724973587745,220.0 7346.724973587745,211.0 7346.724973587745,199.0 C 7346.724973587745,177.0 7324.724973587745,150.0 7307.724973587745,150.0 C 7301.724973587745,150.0 7296.724973587745,143.0 7296.724973587745,135.0 C 7296.724973587745,127.0 7292.724973587745,120.0 7286.724973587745,120.0 C 7270.724973587745,120.0 7274.724973587745,31.0 7290.724973587745,14.0 C 7298.724973587745,6.0 7319.724973587745,0.0 7336.724973587745,0.0 C 7380.724973587745,0.0 7396.724973587745,20.0 7396.724973587745,74.0 C 7396.724973587745,108.0 7400.724973587745,120.0 7411.724973587745,120.0 C 7419.724973587745,120.0 7426.724973587745,127.0 7426.724973587745,135.0 C 7426.724973587745,144.0 7435.724973587745,150.0 7451.724973587745,150.0 C 7465.724973587745,150.0 7476.724973587745,145.0 7476.724973587745,139.0 C 7476.724973587745,125.0 7501.724973587745,100.0 7515.724973587745,100.0 C 7521.724973587745,100.0 7526.724973587745,89.0 7526.724973587745,75.0 C 7526.724973587745,61.0 7531.724973587745,50.0 7536.724973587745,50.0 C 7542.724973587745,50.0 7546.724973587745,43.0 7546.724973587745,35.0 C 7546.724973587745,23.0 7561.724973587745,20.0 7621.724973587745,20.0 C 7681.724973587745,20.0 7696.724973587745,23.0 7696.724973587745,35.0 C 7696.724973587745,43.0 7703.724973587745,50.0 7711.724973587745,50.0 C 7722.724973587745,50.0 7726.724973587745,62.0 7726.724973587745,100.0 C 7726.724973587745,128.0 7731.724973587745,150.0 7736.724973587745,150.0 C 7752.724973587745,150.0 7748.724973587745,239.0 7732.724973587745,256.0 C 7724.724973587745,264.0 7698.724973587745,270.0 7672.724973587745,270.0 C 7638.724973587745,270.0 7626.724973587745,274.0 7626.724973587745,285.0 C 7626.724973587745,296.0 7614.724973587745,300.0 7576.724973587745,300.0 C 7538.724973587745,300.0 7526.724973587745,296.0 7526.724973587745,285.0"/>
	<path d="M 0.0,810.0 C 0.0,767.0 3.0,760.0 20.0,760.0 C 31.0,760.0 40.0,756.0 40.0,750.0 C 40.0,745.0 47.0,740.0 55.0,740.0 C 63.0,740.0 70.0,735.0 70.0,729.0 C 70.0,715.0 95.0,690.0 109.0,690.0 C 115.0,690.0 120.0,685.0 120.0,679.0 C 120.0,665.0 145.0,640.0 159.0,640.0 C 165.0,640.0 170.0,624.0 170.0,604.0 C 170.0,549.0 186.0,540.0 284.0,540.0 C 339.0,540.0 370.0,536.0 370.0,529.0 C 370.0,523.0 376.0,512.0 384.0,504.0 C 392.0,496.0 403.0,490.0 409.0,490.0 C 415.0,490.0 420.0,474.0 420.0,454.0 C 420.0,419.0 438.0,390.0 459.0,390.0 C 465.0,390.0 470.0,386.0 470.0,380.0 C 470.0,374.0 530.0,370.0 630.0,370.0 C 730.0,370.0 790.0,374.0 790.0,380.0 C 790.0,386.0 785.0,390.0 779.0,390.0 C 773.0,390.0 762.0,396.0 754.0,404.0 C 746.0,412.0 740.0,423.0 740.0,429.0 C 740.0,435.0 733.0,440.0 725.0,440.0 C 716.0,440.0 710.0,449.0 710.0,465.0 C 710.0,481.0 716.0,490.0 725.0,490.0 C 733.0,490.0 740.0,495.0 740.0,500.0 C 740.0,506.0 756.0,510.0 775.0,510.0 C 799.0,510.0 810.0,515.0 810.0,525.0 C 810.0,533.0 817.0,540.0 825.0,540.0 C 834.0,540.0 840.0,549.0 840.0,565.0 C 840.0,579.0 835.0,590.0 829.0,590.0 C 815.0,590.0 790.0,615.0 790.0,629.0 C 790.0,635.0 779.0,640.0 765.0,640.0 C 749.0,640.0 740.0,634.0 740.0,625.0 C 740.0,617.0 735.0,610.0 729.0,610.0 C 708.0,610.0 690.0,581.0 690.0,546.0 C 690.0,521.0 686.0,510.0 675.0,510.0 C 667.0,510.0 660.0,506.0 660.0,500.0 C 660.0,484.0 571.0,488.0 554.0,504.0 C 538.0,521.0 535.0,560.0 550.0,560.0 C 556.0,560.0 560.0,567.0 560.0,575.0 C 560.0,583.0 565.0,590.0 571.0,590.0 C 594.0,590.0 610.0,620.0 610.0,664.0 C 610.0,710.0 610.0,710.0 575.0,710.0 C 556.0,710.0 540.0,706.0 540.0,700.0 C 540.0,694.0 501.0,690.0 444.0,690.0 C 350.0,690.0 320.0,699.0 320.0,729.0 C 320.0,735.0 313.0,740.0 305.0,740.0 C 296.0,740.0 290.0,749.0 290.0,761.0 C 290.0,801.0 268.0,810.0 166.0,810.0 C 87.0,810.0 70.0,813.0 70.0,825.0 C 70.0,833.0 63.0,840.0 55.0,840.0 C 47.0,840.0 40.0,845.0 40.0,850.0 C 40.0,856.0 31.0,860.0 20.0,860.0 C 3.0,860.0 0.0,853.0 0.0,810.0"/>
</svg>
